<svg xmlns="http://www.w3.org/2000/svg" xmlns:xlink="http://www.w3.org/1999/xlink" width="1080" zoomAndPan="magnify" viewBox="0 0 810 809.999993" height="1080" preserveAspectRatio="xMidYMid meet" version="1.0"><defs><clipPath id="d8e67511f5"><path d="M 287 464 L 418 464 L 418 753.289062 L 287 753.289062 Z M 287 464 " clip-rule="nonzero"/></clipPath><clipPath id="eb0f03dc36"><path d="M 299 297 L 790 297 L 790 753.289062 L 299 753.289062 Z M 299 297 " clip-rule="nonzero"/></clipPath><clipPath id="e036b05e60"><path d="M 408 297 L 695 297 L 695 753.289062 L 408 753.289062 Z M 408 297 " clip-rule="nonzero"/></clipPath><clipPath id="6099a0c22b"><path d="M 11.398438 567 L 56 567 L 56 622 L 11.398438 622 Z M 11.398438 567 " clip-rule="nonzero"/></clipPath></defs><rect x="-81" width="972" fill="#ffffff" y="-80.999999" height="971.999992" fill-opacity="1"/><rect x="-81" width="972" fill="#ffffff" y="-80.999999" height="971.999992" fill-opacity="1"/><g clip-path="url(#d8e67511f5)"><path fill="#e29680" d="M 287.789062 753.171875 C 294.042969 701.417969 303.570312 641.65625 308.222656 594.714844 C 312.957031 547.039062 318.203125 515.914062 322.480469 493.984375 L 417.984375 464.070312 L 386.644531 605.523438 C 377.789062 657.988281 367.605469 707.433594 355.757812 753.171875 Z M 287.789062 753.171875 " fill-opacity="1" fill-rule="evenodd"/></g><g clip-path="url(#eb0f03dc36)"><path fill="#46708b" d="M 376.09375 753.171875 C 376.222656 712.652344 382.65625 624.730469 382.757812 557.0625 L 299.476562 549.136719 C 299.476562 549.136719 315.902344 444.035156 330.792969 398.464844 C 337.339844 378.441406 345.101562 358.511719 368.460938 343.109375 C 387.425781 330.605469 407.382812 322.894531 433.0625 315.289062 C 434.816406 314.769531 436.609375 314.261719 438.425781 313.765625 C 442.371094 312.6875 452.375 315.796875 452.375 315.796875 C 452.375 315.796875 461.050781 308.464844 466.621094 307.457031 C 485.042969 304.128906 506.574219 301.566406 532.523438 299.742188 C 550.816406 298.457031 570.488281 297.480469 590.164062 297.523438 C 594.90625 297.535156 604.886719 301.316406 604.886719 301.316406 C 604.886719 301.316406 613.367188 298.078125 617.804688 298.347656 C 618.28125 298.375 618.757812 298.40625 619.222656 298.4375 C 647.429688 300.242188 672.207031 305.800781 695.011719 314.902344 C 695.257812 315.003906 705.675781 318.664062 716.425781 330.152344 C 721.828125 335.933594 727.320312 343.6875 731.636719 353.96875 C 759.753906 420.859375 789.417969 504.925781 789.417969 504.925781 L 781.453125 507.148438 L 777.183594 509.132812 L 707.75 527.71875 L 730.683594 753.171875 L 694.730469 753.171875 L 680.792969 746.589844 L 408.941406 753.171875 Z M 376.09375 753.171875 " fill-opacity="1" fill-rule="evenodd"/></g><g clip-path="url(#e036b05e60)"><path fill="#23374b" d="M 408.902344 753.164062 L 409.285156 459.492188 L 431.007812 456.996094 C 431.007812 456.996094 435.242188 361.386719 438.394531 313.769531 C 446.996094 311.421875 456.347656 309.3125 466.675781 307.445312 L 468.371094 455.367188 L 613.484375 447.867188 L 590.152344 297.523438 C 599.441406 297.546875 608.722656 297.796875 617.859375 298.351562 L 644.761719 446.089844 L 662.890625 445.625 L 694.726562 753.164062 Z M 408.902344 753.164062 " fill-opacity="1" fill-rule="evenodd"/></g><path fill="#e29680" d="M 589.542969 215.207031 C 588.550781 228.898438 572.179688 261.789062 572.179688 261.789062 C 572.179688 261.789062 575.195312 294.480469 576.085938 306.441406 C 576.355469 310.09375 574.5625 313.484375 571.882812 315.878906 C 552.300781 333.375 518.550781 340.179688 489.285156 326.300781 C 486.0625 324.769531 483.933594 321.238281 483.664062 317.5625 C 482.710938 304.886719 481.625 288.0625 481.625 288.0625 C 474.496094 285.734375 469.921875 285.757812 457.414062 274.058594 C 440.59375 258.308594 438.207031 239.816406 434.015625 205.191406 C 432.753906 194.804688 427.972656 176.601562 427.789062 166.875 C 427.082031 128.925781 438.207031 98.496094 503.234375 93.601562 C 568.183594 88.710938 586.242188 126.96875 589.46875 173.011719 C 591.3125 171.730469 593.65625 170.601562 595.71875 170.207031 C 600.683594 169.261719 608.261719 169.691406 613.769531 178.515625 C 622.507812 192.535156 607.785156 216.183594 589.542969 215.207031 Z M 589.542969 215.207031 " fill-opacity="1" fill-rule="evenodd"/><path fill="#14171b" d="M 578.1875 82.15625 C 579.875 83.242188 582.054688 84.554688 583.664062 86.894531 C 590.292969 96.574219 597.085938 115.160156 598.167969 138.835938 C 598.699219 150.480469 598.066406 163.410156 597.667969 169.933594 C 596.984375 169.996094 596.324219 170.09375 595.71875 170.207031 C 592.675781 170.789062 589.105469 173.039062 587.277344 174.878906 C 584.59375 177.574219 582.558594 182.410156 582.027344 182.617188 C 580.90625 183.046875 578.894531 183.820312 577.257812 184.453125 C 576.625 184.691406 575.929688 184.632812 575.351562 184.292969 C 574.769531 183.953125 574.382812 183.367188 574.292969 182.699219 L 569.625 148.59375 C 569.457031 147.375 569.019531 146.214844 568.324219 145.199219 C 562.417969 136.578125 557.25 128.085938 551.835938 119.121094 C 481.394531 140.144531 438.980469 135.113281 438.246094 136.90625 C 436.117188 142.035156 434.25 144.171875 431.425781 151.964844 L 430.664062 186.660156 C 425.199219 174.957031 420.03125 163.4375 415.929688 136.066406 C 415.453125 132.851562 411.390625 130.03125 408.902344 121.164062 C 404.546875 105.625 409.058594 102.703125 412.71875 100.597656 C 415.257812 99.132812 420.917969 97.636719 421.847656 95.527344 C 423.535156 91.695312 420.597656 82.742188 427.765625 80.101562 C 453.316406 70.679688 466.246094 62.640625 495.292969 59.898438 C 530.035156 56.613281 550.339844 61.285156 567.898438 73.964844 C 568.710938 74.546875 569.511719 75.144531 570.308594 75.757812 C 570.324219 75.617188 570.4375 74.5 570.503906 73.488281 C 570.515625 73.222656 570.582031 72.625 570.605469 71.695312 C 570.632812 71.066406 570.722656 70.433594 570.644531 68.011719 C 570.617188 67.078125 570.554688 66.417969 570.554688 66.351562 C 570.542969 66.160156 570.488281 65.964844 570.515625 65.773438 C 570.59375 65.179688 571.007812 64.871094 571.082031 64.820312 C 571.574219 64.445312 572.089844 64.519531 572.191406 64.535156 C 572.773438 64.621094 573.082031 65.027344 573.144531 65.097656 C 573.339844 65.363281 573.867188 66.808594 573.933594 66.960938 C 574.007812 67.199219 574.359375 68.09375 574.796875 69.839844 C 575.09375 71.074219 575.195312 71.6875 575.300781 72.359375 C 575.335938 72.628906 575.492188 73.472656 575.59375 75.25 C 575.609375 75.480469 575.609375 77.902344 575.59375 77.984375 C 575.75 77.945312 577.929688 77.359375 580.210938 76.941406 C 583.625 76.3125 586.152344 76.054688 586.605469 76.007812 C 586.902344 75.976562 586.902344 75.953125 587.199219 76.007812 C 587.289062 76.027344 587.792969 76.128906 588.125 76.617188 C 588.179688 76.695312 588.472656 77.125 588.359375 77.738281 C 588.34375 77.824219 588.242188 78.332031 587.753906 78.664062 C 587.699219 78.699219 587.597656 78.761719 586.992188 78.957031 C 586.515625 79.109375 584.660156 79.703125 583.085938 80.261719 C 581.730469 80.746094 579.914062 81.433594 578.1875 82.15625 Z M 578.1875 82.15625 " fill-opacity="1" fill-rule="evenodd"/><g clip-path="url(#6099a0c22b)"><path fill="#2f363b" d="M 26.757812 600.644531 C 27.050781 601.210938 28.433594 602.914062 33.21875 605.636719 C 38.054688 608.386719 45.851562 611.785156 54.957031 614.847656 C 56.386719 615.328125 53.980469 621.609375 53.105469 621.472656 C 52.667969 621.40625 43.671875 620.074219 34.3125 617.234375 C 32.855469 616.789062 28.71875 615.425781 25.585938 613.917969 C 17.898438 610.226562 15.78125 606.550781 14.933594 603.527344 C 14.117188 600.597656 13.5625 598.730469 12.644531 593.851562 C 12.578125 593.496094 12.308594 592.371094 11.871094 588.300781 C 11.820312 587.828125 11.636719 586.507812 11.511719 582.824219 C 11.503906 582.675781 11.382812 580.410156 11.574219 576.828125 C 11.582031 576.71875 11.679688 574.347656 12.074219 572.367188 C 12.152344 571.960938 12.492188 569.890625 14.128906 568.496094 C 15.335938 567.476562 16.582031 567.265625 16.816406 567.230469 C 16.976562 567.203125 17.925781 567.042969 18.839844 567.277344 C 19.410156 567.425781 24.824219 569.109375 30.183594 571.496094 C 32.148438 572.371094 34.261719 573.570312 34.609375 573.765625 C 36.773438 574.996094 35.972656 581.246094 34.582031 581.191406 C 34.414062 581.183594 32.707031 580.710938 32.546875 580.667969 C 32.011719 580.519531 29.871094 579.929688 25.761719 579.234375 C 24.964844 579.097656 24.28125 578.988281 23.492188 578.878906 C 23.527344 579.152344 23.5625 579.441406 23.605469 579.742188 C 23.730469 580.652344 23.875 582.171875 24.332031 584.988281 C 24.429688 585.574219 24.613281 587.179688 25.117188 590.097656 C 25.207031 590.625 25.429688 592.574219 26.011719 595.867188 C 26.292969 597.453125 26.246094 597.457031 26.824219 600.625 Z M 26.757812 600.644531 " fill-opacity="1" fill-rule="evenodd"/></g><path fill="#2f363b" d="M 541.328125 696.457031 C 475.324219 695.851562 433.023438 695.054688 309.277344 669.699219 C 288.609375 665.460938 302.90625 628.484375 316.777344 632.507812 C 361.605469 645.503906 398.859375 648.519531 429.789062 652.578125 C 505.644531 662.507812 542.488281 657.511719 552.789062 667.171875 C 553.71875 668.035156 563.296875 696.664062 541.328125 696.457031 Z M 541.328125 696.457031 " fill-opacity="1" fill-rule="evenodd"/><path fill="#63696f" d="M 210.472656 566.789062 C 315.410156 596.214844 366.800781 631.238281 359.890625 656.855469 C 352.964844 682.453125 315.566406 748.804688 170.816406 713.695312 C 49.164062 684.179688 29.097656 595.136719 36.011719 569.527344 C 42.921875 543.917969 121.347656 541.792969 210.472656 566.789062 Z M 210.472656 566.789062 " fill-opacity="1" fill-rule="evenodd"/><path fill="#2f363b" d="M 205.210938 572.128906 C 236.527344 580.996094 269.257812 591.457031 292.515625 602.453125 C 332.738281 621.460938 357.144531 640.707031 353.210938 655.257812 C 347.023438 678.214844 272.390625 678.097656 186.660156 654.984375 C 100.941406 631.871094 36.378906 594.464844 42.578125 571.503906 C 44.410156 564.714844 52.222656 559.945312 64.53125 557.1875 C 93.867188 550.621094 140.210938 553.71875 205.210938 572.128906 Z M 205.210938 572.128906 " fill-opacity="1" fill-rule="evenodd"/><path fill="#f1bf7a" d="M 163.136719 511.621094 C 162.679688 513.292969 159.230469 586.410156 181.324219 606.636719 C 202.816406 626.316406 264.890625 656.929688 232.929688 661.53125 C 218.980469 663.539062 183.140625 656.738281 151.433594 644.753906 C 133.03125 637.796875 117.550781 632.429688 105.207031 625.832031 C 95.246094 620.507812 87.027344 603.582031 86.527344 602.433594 C 80.960938 589.640625 77.058594 576.691406 77.089844 561.707031 C 77.109375 551.15625 80.363281 538.796875 80.789062 528.25 C 81.199219 518.109375 85.425781 507.996094 91.664062 498.808594 C 95.769531 492.761719 99.347656 486.511719 104.160156 481.390625 C 115.28125 469.558594 130.359375 459.90625 148.003906 459.929688 C 152.988281 459.933594 163.664062 455.96875 172.296875 457.664062 C 177.507812 458.6875 190.59375 460.203125 193.25 464.085938 C 196.304688 468.53125 194.203125 478.535156 184.574219 482.65625 C 183.890625 482.949219 175.285156 484.59375 170.761719 490.316406 C 165.1875 497.363281 163.789062 509.222656 163.136719 511.621094 Z M 218.347656 481.453125 C 201.550781 483.609375 203.523438 475.355469 203.832031 474.085938 C 205.238281 468.214844 206.191406 468.582031 212.210938 468.789062 C 221.738281 469.125 226.84375 476.988281 225.296875 481.390625 C 224.796875 482.808594 219.960938 481.25 218.347656 481.453125 Z M 177.972656 520.074219 C 179.46875 529.410156 178.566406 529.515625 174.585938 538.097656 C 171.8125 544.074219 167.925781 531.53125 168.007812 529.085938 C 168.191406 523.742188 171.082031 514.890625 174.425781 513.390625 C 178.695312 511.472656 177.664062 518.144531 177.972656 520.074219 Z M 177.972656 520.074219 " fill-opacity="1" fill-rule="evenodd"/><path fill="#e65b52" d="M 126.097656 574.023438 C 126.214844 575.878906 125.144531 576.65625 117.976562 577.785156 C 116.558594 578.007812 113.71875 579.238281 113.835938 572.597656 C 113.847656 571.871094 113.890625 570.222656 115.03125 569.492188 C 117.066406 568.191406 118.347656 567.746094 119.722656 567.402344 C 124.171875 566.28125 125.082031 568.734375 125.339844 569.964844 C 125.441406 570.453125 126.074219 573.660156 126.097656 574.023438 Z M 159.886719 636.640625 C 159.972656 637.863281 159.226562 638.363281 154.195312 639.082031 C 153.199219 639.222656 151.207031 640.019531 151.269531 635.675781 C 151.277344 635.203125 151.300781 634.121094 152.097656 633.648438 C 156.917969 630.796875 158.085938 630.324219 158.5625 631.304688 C 158.613281 631.402344 158.816406 631.816406 159 632.625 C 159.074219 632.945312 159.867188 636.410156 159.886719 636.640625 Z M 130.410156 480.25 C 130.5 481.46875 129.75 481.972656 124.71875 482.6875 C 123.722656 482.828125 121.734375 483.625 121.796875 479.28125 C 121.800781 478.804688 121.824219 477.726562 122.625 477.257812 C 127.445312 474.398438 128.78125 475.398438 129.261719 476.375 C 129.308594 476.476562 129.511719 476.890625 129.695312 477.695312 C 129.769531 478.019531 130.394531 480.015625 130.410156 480.25 Z M 130.410156 480.25 " fill-opacity="1" fill-rule="evenodd"/><path fill="#449b59" d="M 162.652344 547.261719 C 161.921875 548.148438 161.058594 547.964844 156.980469 544.9375 C 156.171875 544.339844 154.222656 543.488281 157.089844 540.585938 C 157.402344 540.265625 158.121094 539.550781 159 539.789062 C 164.320312 541.21875 165.464844 541.714844 165.171875 542.714844 C 165.140625 542.816406 165.015625 543.238281 164.625 543.914062 C 164.472656 544.183594 162.792969 547.089844 162.652344 547.261719 Z M 162.09375 606.765625 C 161.367188 607.652344 160.757812 608.480469 156.675781 605.453125 C 155.871094 604.851562 153.921875 604.003906 156.785156 601.097656 C 157.101562 600.78125 157.816406 600.066406 158.699219 600.300781 C 164.015625 601.734375 163.863281 603.175781 163.570312 604.175781 C 163.542969 604.277344 162.234375 606.59375 162.09375 606.765625 Z M 93.308594 530.664062 C 93.308594 530.664062 89.390625 515.953125 105.734375 512.074219 C 105.734375 512.074219 108.859375 527.414062 93.308594 530.664062 Z M 175.46875 492.40625 C 175.46875 492.40625 189.496094 484.574219 197.386719 502.164062 C 197.386719 502.164062 182.535156 509.25 175.46875 492.40625 Z M 215.152344 650.875 C 215.152344 650.875 216.699219 634.886719 235.664062 638.410156 C 235.664062 638.410156 233.03125 654.652344 215.152344 650.875 Z M 215.152344 650.875 " fill-opacity="1" fill-rule="evenodd"/><path fill="#ea9d48" d="M 163.390625 476.285156 C 163.390625 476.28125 163.390625 476.28125 163.386719 476.28125 C 163.382812 476.273438 163.382812 476.277344 163.390625 476.285156 Z M 163.390625 476.285156 C 163.398438 476.289062 163.359375 476.242188 163.167969 476.152344 C 162.617188 475.890625 162.332031 476.089844 161.53125 475.996094 C 159.980469 475.8125 159.164062 474.648438 158.742188 474.195312 C 158.714844 474.167969 158.304688 473.738281 158.046875 473.511719 C 157.933594 473.414062 157.648438 473.183594 157.53125 473.105469 C 157.417969 473.03125 157.410156 473.039062 157.296875 472.964844 C 157.292969 472.960938 157.292969 472.960938 157.222656 472.917969 C 157.230469 472.898438 157.234375 472.878906 157.238281 472.863281 C 157.039062 473.023438 156.746094 473.359375 156.460938 473.867188 C 156.074219 474.558594 156.078125 474.605469 155.96875 474.832031 C 155.757812 475.269531 155.84375 475.34375 155.4375 475.609375 C 155.304688 475.695312 155.15625 475.757812 155 475.785156 C 154.488281 475.878906 154.128906 475.632812 154.0625 475.585938 C 153.652344 475.304688 153.574219 474.882812 153.558594 474.808594 C 153.554688 474.800781 153.53125 473.769531 153.679688 472.917969 C 153.886719 471.707031 154.234375 471.003906 154.597656 470.496094 C 155.320312 469.46875 156.273438 469.191406 156.453125 469.140625 C 157.582031 468.8125 158.5 469.175781 158.730469 469.269531 C 159.1875 469.441406 159.472656 469.636719 159.53125 469.675781 C 160.3125 470.199219 160.777344 470.792969 160.828125 470.855469 C 161.109375 471.191406 161.414062 471.59375 161.792969 472.257812 C 161.796875 472.265625 162.0625 472.757812 162.070312 472.789062 C 162.078125 472.820312 162.039062 472.890625 162.355469 472.976562 C 163.042969 473.160156 163.980469 473.277344 164.964844 474.382812 C 165.042969 474.46875 165.050781 474.460938 165.0625 474.476562 C 165.15625 474.609375 165.277344 474.726562 165.34375 474.871094 C 165.375 474.941406 165.554688 475.328125 165.378906 475.796875 C 165.199219 476.285156 164.800781 476.46875 164.730469 476.5 C 164.273438 476.707031 163.871094 476.558594 163.800781 476.53125 C 163.605469 476.460938 163.429688 476.316406 163.390625 476.285156 Z M 84.300781 545.421875 C 84.25 545.65625 84.199219 545.933594 84.148438 546.253906 C 84.09375 546.640625 83.867188 546.878906 83.824219 546.921875 C 83.59375 547.160156 83.566406 547.125 83.242188 547.210938 C 83.238281 547.210938 82.925781 547.144531 82.925781 547.144531 C 82.605469 547.003906 82.441406 546.707031 82.414062 546.660156 C 82.292969 546.433594 82.308594 546.425781 82.261719 546.171875 C 81.996094 544.679688 82.011719 543.394531 82.769531 542.621094 C 83.328125 542.054688 84.449219 541.667969 85.824219 542.753906 C 86.027344 542.914062 86.195312 543.066406 86.34375 543.21875 C 86.753906 543.042969 87.28125 542.929688 87.886719 543.15625 C 88.339844 543.324219 88.769531 543.734375 89.003906 544.25 C 89.058594 544.371094 89.070312 544.394531 89.109375 544.476562 C 89.421875 544.425781 89.800781 544.324219 90.058594 544.320312 C 90.378906 544.316406 91.273438 544.40625 91.847656 545.664062 C 91.941406 545.867188 91.941406 545.894531 91.984375 545.988281 C 92.074219 546.175781 92.078125 546.175781 92.085938 546.386719 C 92.085938 546.441406 92.097656 546.765625 91.839844 547.046875 C 91.574219 547.332031 91.242188 547.34375 91.183594 547.347656 C 90.800781 547.359375 90.566406 547.140625 90.523438 547.101562 C 90.382812 546.972656 90.320312 546.832031 90.304688 546.804688 C 90.296875 546.78125 90.265625 546.714844 90.136719 546.582031 C 89.511719 546.855469 88.730469 547.207031 87.875 546.804688 C 87.550781 546.652344 87.285156 546.414062 87.082031 546.1875 C 86.417969 546.566406 85.910156 546.488281 85.890625 546.488281 C 85.058594 546.421875 84.632812 545.832031 84.59375 545.789062 C 84.5 545.679688 84.421875 545.566406 84.300781 545.421875 Z M 83.785156 544.828125 C 83.746094 544.898438 83.753906 544.886719 83.785156 544.828125 Z M 124.554688 538.4375 C 124.367188 538.683594 124.089844 539.515625 124.035156 540.910156 C 124.023438 541.195312 124.078125 541.207031 123.976562 541.472656 C 123.957031 541.523438 123.84375 541.828125 123.5 541.988281 C 123.144531 542.152344 122.828125 542.035156 122.777344 542.015625 C 122.417969 541.882812 122.28125 541.589844 122.261719 541.539062 C 122.148438 541.296875 122.183594 541.285156 122.167969 541.023438 C 122.136719 540.414062 121.820312 536.976562 123.894531 536.265625 C 124.523438 536.050781 125.328125 536.179688 125.789062 536.34375 C 126.664062 536.65625 127.160156 537.304688 127.441406 537.746094 C 127.523438 537.871094 127.601562 538.003906 127.675781 538.144531 C 128.003906 537.730469 128.425781 537.414062 128.976562 537.269531 C 129.890625 537.027344 130.921875 537.351562 131.722656 538.519531 C 132.394531 537.628906 133.269531 536.878906 134.378906 536.792969 C 134.898438 536.75 135.539062 536.882812 135.988281 537.207031 C 136.015625 537.226562 138.558594 538.902344 137.695312 542.5625 C 137.601562 542.972656 137.328125 543.160156 137.277344 543.195312 C 137.183594 543.265625 137.074219 543.316406 136.957031 543.34375 C 136.386719 543.480469 136.082031 543.042969 136.035156 542.980469 C 135.964844 542.878906 135.914062 542.765625 135.882812 542.652344 C 135.808594 542.378906 135.847656 542.375 135.863281 542.089844 C 135.972656 540.320312 135.089844 539.550781 134.726562 539.320312 C 134.695312 539.316406 134.6875 539.316406 134.660156 539.328125 C 134.640625 539.347656 134.613281 539.367188 134.585938 539.386719 C 133.867188 539.917969 133.191406 541.738281 132.886719 542.429688 C 132.765625 542.707031 132.605469 542.867188 132.574219 542.898438 C 132.105469 543.371094 131.539062 543.34375 131.441406 543.335938 C 130.777344 543.300781 130.421875 542.855469 130.363281 542.777344 C 130.3125 542.714844 130.265625 542.644531 130.222656 542.570312 C 130.101562 542.34375 129.867188 541.550781 129.570312 540.871094 C 129.371094 541.503906 129.203125 542.25 129.175781 542.355469 C 129.152344 542.429688 129.132812 542.507812 129.105469 542.582031 C 129.070312 542.667969 128.867188 543.171875 128.261719 543.375 C 128.171875 543.40625 127.65625 543.578125 127.109375 543.25 C 127.0625 543.222656 126.796875 543.0625 126.617188 542.742188 C 126.515625 542.566406 126.527344 542.5625 126.46875 542.371094 C 125.917969 540.632812 125.457031 538.804688 124.925781 538.53125 C 124.796875 538.464844 124.628906 538.445312 124.554688 538.4375 Z M 148.910156 504.226562 C 148.804688 504.363281 148.65625 504.601562 148.492188 504.984375 C 148.367188 505.277344 148.113281 505.972656 147.914062 506.804688 C 147.867188 507.007812 147.871094 507.011719 147.757812 507.191406 C 147.730469 507.238281 147.550781 507.523438 147.214844 507.632812 C 147.210938 507.632812 146.882812 507.675781 146.882812 507.675781 C 146.777344 507.636719 146.660156 507.621094 146.5625 507.566406 C 146.253906 507.386719 146.140625 507.074219 146.121094 507.023438 C 146.042969 506.816406 146.050781 506.8125 146.050781 506.59375 C 146.039062 504.558594 146.4375 503.488281 146.605469 503.097656 C 146.988281 502.199219 147.582031 501.828125 147.699219 501.753906 C 149.132812 500.863281 150.480469 501.738281 151.152344 502.203125 C 151.152344 502.203125 151.34375 502.324219 151.835938 502.730469 C 151.84375 502.710938 151.851562 502.6875 151.859375 502.667969 C 152.136719 501.933594 152.609375 500.496094 154.046875 500.265625 C 155.390625 500.050781 156.621094 501.105469 157.328125 501.8125 C 157.65625 502.144531 158.0625 502.652344 158.105469 502.699219 C 158.246094 502.847656 158.25 502.847656 158.320312 503.042969 C 158.339844 503.09375 158.453125 503.398438 158.292969 503.742188 C 158.265625 503.796875 158.128906 504.097656 157.757812 504.234375 C 157.402344 504.363281 157.109375 504.226562 157.054688 504.203125 C 156.851562 504.109375 156.859375 504.097656 156.703125 503.929688 C 156.632812 503.851562 155.371094 502.792969 154.679688 502.664062 C 154.660156 502.722656 154.613281 502.828125 154.460938 503.46875 C 154.320312 504.058594 154.097656 505.105469 153.378906 506.011719 C 152.972656 506.527344 152.410156 506.558594 152.3125 506.566406 C 152.238281 506.570312 151.820312 506.597656 151.40625 506.324219 C 151.265625 506.230469 150.902344 505.890625 150.246094 505.328125 C 150.222656 505.308594 149.878906 504.992188 149.535156 504.710938 C 149.230469 504.457031 149.234375 504.441406 148.910156 504.226562 Z M 148.933594 503.875 L 148.796875 503.613281 L 148.933594 503.878906 Z M 106.105469 495.375 C 106.074219 495.398438 106.035156 495.4375 105.988281 495.492188 C 105.417969 496.160156 104.914062 497.90625 104.90625 497.933594 C 104.78125 498.347656 104.738281 498.414062 104.710938 498.449219 C 104.5 498.765625 104.183594 498.824219 104.125 498.835938 C 103.738281 498.910156 103.464844 498.726562 103.414062 498.691406 C 103.105469 498.480469 103.039062 498.164062 103.027344 498.109375 C 103.019531 498.0625 102.996094 497.949219 103.050781 497.539062 C 103.253906 495.988281 103.742188 493.238281 105.765625 492.855469 C 107.796875 492.472656 109.511719 494.929688 110.371094 495.734375 C 111.578125 495.800781 112.933594 495.964844 113.886719 497.28125 C 113.976562 497.410156 114.070312 497.554688 114.15625 497.714844 C 115.335938 496.574219 116.167969 496.03125 117.058594 496.128906 C 117.082031 496.132812 117.441406 496.148438 118.015625 496.484375 C 120.269531 497.8125 119.585938 501.71875 119.550781 502.109375 C 119.53125 502.320312 119.539062 502.324219 119.441406 502.507812 C 119.414062 502.558594 119.261719 502.84375 118.898438 502.957031 C 118.523438 503.074219 118.230469 502.917969 118.179688 502.890625 C 117.84375 502.710938 117.746094 502.402344 117.726562 502.351562 C 117.640625 502.074219 117.699219 502.066406 117.699219 501.773438 C 117.707031 499.988281 117.320312 498.886719 116.964844 498.632812 C 116.726562 498.828125 116.257812 499.257812 115.035156 500.800781 C 114.835938 501.050781 114.839844 501.054688 114.804688 501.09375 C 114.628906 501.28125 114.476562 501.371094 114.445312 501.390625 C 113.910156 501.703125 113.40625 501.546875 113.316406 501.523438 C 113.246094 501.5 112.851562 501.378906 112.574219 500.984375 C 112.371094 500.691406 111.65625 499.058594 111.359375 498.917969 C 111.308594 498.894531 111.191406 498.839844 110.664062 498.769531 C 109.933594 498.671875 109.636719 498.753906 109.109375 498.480469 C 108.09375 497.957031 107.269531 496.386719 106.347656 495.585938 C 106.210938 495.464844 106.148438 495.4375 106.101562 495.394531 C 106.101562 495.386719 106.101562 495.378906 106.105469 495.375 Z M 110.53125 495.863281 C 110.535156 495.855469 110.535156 495.855469 110.53125 495.863281 Z M 94.832031 574.808594 C 94.671875 575.164062 94.476562 575.695312 94.289062 576.425781 C 94.183594 576.835938 94.109375 577.113281 93.984375 577.746094 C 93.972656 577.800781 93.90625 578.125 93.617188 578.378906 C 93.527344 578.457031 93.429688 578.519531 93.320312 578.558594 C 93.316406 578.5625 92.988281 578.613281 92.988281 578.613281 C 92.882812 578.582031 92.765625 578.570312 92.667969 578.515625 C 92.351562 578.347656 92.226562 578.039062 92.207031 577.988281 C 92.109375 577.753906 92.125 577.746094 92.117188 577.492188 C 92.070312 576.363281 92.089844 574.621094 92.570312 573.371094 C 92.589844 573.3125 93.078125 571.820312 94.5 571.648438 C 95.050781 571.582031 95.683594 571.753906 96.226562 572.109375 C 96.523438 572.300781 96.921875 572.597656 97.597656 573.421875 C 97.613281 573.4375 98.085938 574.046875 98.523438 574.757812 C 98.558594 574.8125 98.589844 574.867188 98.621094 574.921875 C 99.535156 574.382812 100.546875 574.175781 101.902344 574.820312 C 102.882812 575.285156 103.941406 576.140625 104.054688 576.21875 C 104.078125 576.234375 104.101562 576.25 104.125 576.265625 C 104.175781 576.292969 104.449219 576.46875 104.539062 576.847656 C 104.5625 576.964844 104.570312 577.085938 104.550781 577.203125 C 104.484375 577.589844 104.210938 577.785156 104.164062 577.816406 C 103.851562 578.035156 103.53125 577.980469 103.476562 577.972656 C 103.210938 577.925781 103.230469 577.882812 102.988281 577.761719 C 101.15625 576.839844 100.738281 576.789062 100.414062 576.851562 L 100.414062 576.855469 C 99.972656 576.996094 99.273438 577.871094 99.164062 577.96875 C 99.109375 578.019531 99.050781 578.070312 98.988281 578.113281 C 98.5 578.457031 97.996094 578.355469 97.910156 578.339844 C 97.839844 578.324219 97.449219 578.242188 97.140625 577.886719 C 97.0625 577.796875 96.496094 576.949219 95.949219 576.230469 C 95.84375 576.089844 95.648438 575.800781 95.265625 575.332031 C 95.183594 575.230469 95.070312 575.066406 94.832031 574.808594 Z M 133.753906 618.4375 C 133.703125 618.460938 133.40625 618.59375 133.042969 618.457031 C 132.929688 618.417969 132.824219 618.351562 132.738281 618.269531 C 132.578125 618.121094 132.585938 618.113281 132.496094 617.914062 C 132.488281 617.898438 131.902344 616.792969 131.15625 615.941406 C 129.910156 614.523438 128.621094 614.207031 127.066406 612.503906 C 126.914062 612.335938 126.28125 611.597656 125.746094 610.667969 C 125.238281 609.78125 125.058594 609.226562 124.433594 608.578125 C 123.941406 608.066406 123.378906 607.871094 123.277344 607.835938 C 122.796875 607.667969 121.910156 607.460938 120.460938 607.773438 C 120.351562 607.796875 119.847656 607.894531 119.203125 608.132812 C 118.832031 608.269531 118.78125 608.273438 118.742188 608.277344 C 118.363281 608.3125 118.113281 608.101562 118.074219 608.066406 C 117.769531 607.808594 117.742188 607.480469 117.738281 607.421875 C 117.710938 607.042969 117.917969 606.796875 117.953125 606.753906 C 117.996094 606.699219 118.089844 606.585938 118.671875 606.253906 C 119.65625 605.691406 121.429688 604.886719 123.398438 605.089844 C 125.226562 605.28125 126.324219 606.28125 126.757812 606.714844 C 127.085938 607.046875 127.574219 607.660156 127.914062 608.34375 C 128.019531 608.550781 128.476562 609.574219 129.015625 610.371094 C 130.304688 612.273438 131.441406 612.472656 132.824219 614.445312 C 133.695312 615.683594 134.128906 616.996094 134.179688 617.109375 C 134.273438 617.328125 134.296875 617.324219 134.304688 617.5625 C 134.304688 617.621094 134.316406 617.941406 134.054688 618.222656 C 133.925781 618.359375 133.925781 618.359375 133.753906 618.4375 Z M 139.714844 564.15625 C 139.496094 564.199219 139.304688 564.347656 139.082031 564.378906 C 138.964844 564.398438 138.84375 564.34375 138.734375 564.292969 C 138.683594 564.269531 138.382812 564.125 138.253906 563.757812 C 138.128906 563.398438 138.269531 563.105469 138.289062 563.054688 C 138.308594 563.015625 138.390625 562.84375 138.652344 562.636719 C 139.441406 562.011719 142.378906 560.265625 144.527344 561.691406 C 145.878906 562.589844 146.042969 564.28125 146.066406 564.449219 C 146.144531 565.027344 146.15625 565.65625 146.027344 566.652344 C 146.007812 566.789062 145.957031 567.042969 145.914062 567.25 C 146.335938 567.898438 147.621094 569.066406 148.011719 569.894531 C 148.550781 571.03125 147.710938 571.722656 147.621094 571.84375 C 147.539062 571.953125 147.214844 572.515625 147.347656 574.445312 C 147.367188 574.761719 147.464844 575.851562 147.535156 576.175781 C 147.546875 576.230469 147.617188 576.550781 147.40625 576.878906 C 147.199219 577.203125 146.878906 577.273438 146.824219 577.285156 C 146.769531 577.296875 146.449219 577.371094 146.121094 577.160156 C 146.023438 577.097656 145.929688 577.011719 145.863281 576.914062 C 145.726562 576.71875 145.75 576.707031 145.691406 576.476562 C 145.574219 576.03125 144.660156 573.226562 145.128906 571.339844 C 145.183594 571.117188 145.25 570.925781 145.324219 570.765625 C 144.785156 570.253906 144.363281 569.917969 143.828125 569.324219 C 143.53125 568.992188 142.710938 568.085938 142.914062 566.992188 C 142.929688 566.910156 143.007812 566.484375 143.082031 565.953125 C 143.171875 565.292969 143.214844 564.316406 142.941406 563.917969 C 142.859375 563.8125 142.777344 563.746094 142.496094 563.683594 C 142.222656 563.625 141.773438 563.609375 141.140625 563.738281 C 140.324219 563.910156 139.773438 564.160156 139.730469 564.175781 Z M 139.746094 564.148438 L 139.75 564.152344 L 139.757812 564.148438 C 139.753906 564.148438 139.75 564.148438 139.746094 564.148438 Z M 186.429688 634.695312 C 186.378906 635.042969 186.390625 635.765625 186.648438 636.910156 C 186.660156 636.949219 186.816406 637.773438 187.34375 639.40625 C 187.511719 639.890625 187.640625 640.25 187.640625 640.253906 C 187.667969 640.375 187.707031 640.496094 187.707031 640.621094 C 187.707031 640.679688 187.707031 641.011719 187.484375 641.289062 C 187.484375 641.289062 187.214844 641.5 187.214844 641.5 C 187.113281 641.527344 186.996094 641.578125 186.894531 641.582031 C 186.53125 641.597656 186.261719 641.390625 186.222656 641.355469 C 186.042969 641.214844 186.042969 641.207031 185.925781 641.011719 C 185.140625 639.742188 183.4375 636.789062 183.527344 634.519531 C 183.617188 632.171875 185.460938 631.464844 186.675781 631.621094 C 187.808594 631.765625 188.53125 632.585938 189.34375 633.351562 C 189.859375 633.839844 190.863281 634.855469 192.992188 636.265625 C 193.171875 636.382812 193.933594 636.890625 195.246094 637.644531 C 195.492188 637.792969 195.492188 637.789062 195.570312 637.824219 C 195.621094 637.847656 195.917969 637.988281 196.058594 638.351562 C 196.097656 638.464844 196.109375 638.585938 196.109375 638.703125 C 196.097656 639.097656 195.851562 639.320312 195.800781 639.359375 C 195.53125 639.617188 195.207031 639.601562 195.144531 639.601562 C 194.859375 639.589844 194.875 639.539062 194.601562 639.441406 C 193.585938 639.054688 191.792969 638.332031 190 637.265625 C 188.039062 636.105469 187.097656 635.191406 186.558594 634.789062 C 186.507812 634.75 186.46875 634.71875 186.429688 634.695312 Z M 175.890625 523.304688 C 175.886719 523.480469 175.878906 523.484375 175.894531 523.855469 C 175.898438 524 175.898438 524.546875 175.898438 524.605469 C 175.894531 525.644531 175.699219 526.074219 175.644531 526.1875 C 175.480469 526.550781 175.210938 526.851562 174.664062 527.28125 C 174.515625 527.398438 173.640625 528.050781 173.296875 528.285156 C 172.992188 528.496094 172.984375 528.488281 172.894531 528.570312 C 172.851562 528.613281 172.613281 528.835938 172.226562 528.824219 C 172.109375 528.820312 171.988281 528.792969 171.878906 528.746094 C 171.824219 528.722656 171.519531 528.585938 171.382812 528.21875 C 171.246094 527.863281 171.378906 527.570312 171.402344 527.515625 C 171.453125 527.40625 171.542969 527.316406 171.613281 527.214844 C 171.625 527.203125 171.640625 527.195312 171.652344 527.179688 C 171.707031 527.113281 171.699219 527.109375 172.316406 526.339844 C 172.671875 525.902344 172.996094 525.488281 173.144531 525.292969 C 173.140625 525.292969 173.136719 525.292969 173.136719 525.289062 C 173.125 525.289062 172.945312 524.214844 172.921875 523.996094 C 172.816406 523 172.867188 522.792969 173.351562 521.503906 C 173.40625 521.359375 173.640625 520.710938 173.726562 520.328125 C 173.820312 519.898438 173.785156 519.65625 173.777344 519.597656 C 173.777344 519.589844 173.773438 519.582031 173.769531 519.574219 C 173.738281 519.449219 173.695312 519.324219 173.679688 519.191406 C 173.671875 519.136719 173.632812 518.789062 173.777344 518.496094 C 173.789062 518.476562 173.871094 518.308594 173.957031 518.269531 C 174.054688 518.226562 174.148438 518.164062 174.25 518.140625 C 174.59375 518.066406 174.898438 518.214844 174.949219 518.238281 C 174.984375 518.257812 175.183594 518.355469 175.375 518.578125 C 175.851562 519.132812 176.117188 519.84375 176.179688 520.890625 C 176.179688 520.992188 176.179688 521.4375 176.15625 521.707031 C 176.101562 522.328125 176.042969 522.578125 175.957031 523.003906 C 175.925781 523.164062 175.910156 523.183594 175.890625 523.304688 Z M 213.8125 476.65625 C 213.695312 476.847656 213.605469 476.863281 213.410156 476.863281 C 213.269531 476.867188 213.128906 476.828125 212.984375 476.808594 C 212.984375 476.804688 212.972656 476.796875 212.972656 476.796875 C 212.921875 476.777344 212.820312 476.746094 212.636719 476.679688 C 211.800781 476.371094 211.492188 476.257812 211.167969 476.179688 C 211.089844 476.160156 210.757812 476.085938 210.589844 476.035156 C 210.460938 476.003906 209.917969 475.875 209.597656 475.820312 C 208.820312 475.691406 208.808594 475.679688 208.757812 475.640625 C 208.757812 475.636719 208.539062 475.253906 208.539062 475.253906 C 208.5 475.054688 208.578125 474.960938 208.667969 474.851562 C 208.808594 474.660156 209.570312 474.445312 209.648438 474.421875 C 209.816406 474.375 210.085938 474.296875 210.484375 474.277344 C 211.105469 474.242188 211.53125 474.425781 211.566406 474.441406 C 211.734375 474.5 212.25 474.6875 213.335938 475.648438 C 213.359375 475.671875 213.386719 475.695312 213.410156 475.714844 C 213.449219 475.753906 213.488281 475.792969 213.539062 475.828125 C 213.539062 475.832031 213.554688 475.835938 213.554688 475.839844 C 213.796875 476.148438 213.796875 476.148438 213.8125 476.183594 C 213.902344 476.398438 213.925781 476.460938 213.8125 476.65625 Z M 213.8125 476.65625 " fill-opacity="1" fill-rule="evenodd"/><path fill="#e29680" d="M 512.128906 641.296875 C 521.050781 643.761719 536.351562 652.265625 537.679688 651.675781 C 593.964844 626.746094 654.195312 598.980469 704.628906 567.800781 L 696.300781 530.511719 L 781.503906 507.132812 L 787.007812 539.371094 C 787.007812 539.371094 798.871094 606.847656 784.894531 621.960938 C 757.074219 652.074219 547.570312 703.660156 542.371094 705.785156 C 515.3125 716.867188 498.515625 727.121094 492.636719 729.171875 C 489.59375 730.238281 486.242188 730.550781 485.132812 730.511719 C 473.363281 730.007812 463.359375 725.652344 452.117188 720.125 C 450.429688 719.289062 443.90625 718.425781 439.945312 716.632812 C 434.855469 714.328125 432.148438 711.042969 430.136719 710.296875 C 426.4375 708.890625 422.96875 707.449219 421.578125 705.992188 C 416.160156 700.363281 416.1875 694.539062 418.738281 690.929688 C 422.207031 686.023438 427.03125 694.5 448.609375 688.484375 C 467.5625 683.199219 472.007812 671.15625 475.089844 663.101562 C 475.375 662.367188 475.039062 658.207031 463.707031 655.898438 C 458.125 654.753906 451.898438 656.054688 450.054688 653.683594 C 448.804688 652.074219 453.523438 647.691406 456.21875 645.890625 C 463.011719 641.363281 487.878906 634.582031 512.128906 641.296875 Z M 512.128906 641.296875 " fill-opacity="1" fill-rule="evenodd"/><path fill="#14171b" d="M 473.59375 699.988281 C 473.648438 699.9375 473.632812 699.949219 473.59375 699.988281 Z M 473.59375 699.988281 C 473.570312 700.015625 473.800781 699.796875 474.058594 699.691406 C 474.136719 699.667969 474.585938 699.5 475.089844 699.730469 C 475.347656 699.847656 475.347656 699.847656 475.527344 700.039062 C 475.59375 700.105469 475.929688 700.453125 475.902344 701.019531 C 475.902344 701.199219 475.863281 701.378906 475.785156 701.535156 C 475.644531 701.84375 475.632812 701.84375 475.375 702.074219 C 474.714844 702.667969 472.679688 704.859375 466.335938 707.421875 C 463.953125 708.390625 461.246094 709.1875 460.804688 709.316406 C 458.371094 710.039062 456.628906 710.449219 454.980469 710.796875 C 454.824219 710.824219 453.277344 711.183594 450.441406 711.597656 C 450.363281 711.609375 448.367188 711.878906 446.546875 712.007812 C 444.949219 712.125 443.441406 712.203125 441.25 712.175781 C 440.371094 712.175781 438.734375 712.125 437.433594 712.007812 C 433.410156 711.675781 431.128906 711.054688 429.996094 710.722656 C 429.296875 710.5 428.820312 710.320312 428.757812 710.296875 C 428.5 710.207031 428.488281 710.21875 428.28125 710.039062 C 428.214844 709.988281 427.84375 709.675781 427.789062 709.125 C 427.777344 709.046875 427.726562 708.554688 428.101562 708.105469 C 428.152344 708.042969 428.449219 707.679688 429.015625 707.628906 C 429.351562 707.589844 429.351562 707.628906 429.671875 707.707031 C 430.070312 707.796875 432.613281 708.390625 437.1875 708.3125 C 437.355469 708.3125 439.378906 708.285156 442.113281 708.066406 C 442.304688 708.054688 443.027344 708.003906 444.511719 707.859375 C 444.742188 707.835938 445.296875 707.785156 447.375 707.539062 C 448.6875 707.382812 448.90625 707.332031 450.054688 707.191406 C 450.351562 707.152344 451.460938 707.011719 453.765625 706.636719 C 454.101562 706.585938 455.585938 706.351562 457.828125 705.914062 C 458.539062 705.773438 462.40625 705.027344 466.464844 703.621094 C 470.566406 702.203125 472.5625 700.824219 473.441406 700.128906 C 473.464844 700.117188 473.542969 700.027344 473.59375 699.988281 Z M 528.554688 174.96875 C 532.5625 175.027344 535.757812 178.324219 535.695312 182.324219 C 535.644531 186.324219 532.34375 189.523438 528.347656 189.464844 C 524.335938 189.40625 521.140625 186.109375 521.191406 182.109375 C 521.257812 178.109375 524.554688 174.910156 528.554688 174.96875 Z M 460.199219 180.347656 C 464.195312 180.410156 467.394531 183.703125 467.34375 187.703125 C 467.277344 191.703125 463.992188 194.902344 459.980469 194.84375 C 455.984375 194.785156 452.773438 191.488281 452.839844 187.488281 C 452.890625 183.488281 456.191406 180.289062 460.199219 180.347656 Z M 593.761719 187.132812 C 593.117188 188.113281 591.800781 188.390625 590.820312 187.753906 C 589.828125 187.113281 589.558594 185.792969 590.203125 184.808594 C 593.308594 180.03125 598.3125 179.027344 603.414062 179.671875 C 604.578125 179.820312 605.402344 180.882812 605.257812 182.046875 C 605.117188 183.214844 604.046875 184.039062 602.886719 183.890625 C 599.394531 183.453125 595.886719 183.871094 593.761719 187.132812 Z M 491.21875 190.277344 C 491.398438 189.0625 492.519531 188.214844 493.730469 188.386719 C 494.957031 188.5625 495.792969 189.691406 495.628906 190.902344 L 492.84375 210.367188 L 496 211.664062 C 497.136719 212.128906 497.675781 213.429688 497.210938 214.5625 C 496.75 215.699219 495.445312 216.242188 494.3125 215.777344 L 489.554688 213.824219 C 488.613281 213.4375 488.046875 212.460938 488.203125 211.453125 Z M 517.59375 168.285156 C 516.332031 169.179688 514.589844 168.890625 513.6875 167.632812 C 512.800781 166.378906 513.09375 164.632812 514.347656 163.742188 C 519.21875 160.265625 529.300781 155.457031 540.839844 163.582031 C 542.101562 164.472656 542.410156 166.214844 541.523438 167.472656 C 540.632812 168.734375 538.890625 169.039062 537.628906 168.148438 C 528.902344 162.007812 521.28125 165.65625 517.59375 168.285156 Z M 470.539062 168.808594 C 471.90625 169.507812 472.460938 171.191406 471.765625 172.5625 C 471.054688 173.9375 469.378906 174.484375 468 173.785156 C 463.964844 171.734375 455.894531 169.253906 448.171875 176.628906 C 447.050781 177.691406 445.285156 177.652344 444.214844 176.535156 C 443.15625 175.421875 443.195312 173.65625 444.304688 172.589844 C 454.515625 162.839844 465.203125 166.097656 470.539062 168.808594 Z M 487.144531 251.460938 C 485.945312 251.261719 485.132812 250.125 485.339844 248.925781 C 485.53125 247.726562 486.667969 246.914062 487.878906 247.113281 C 503.246094 249.679688 514.707031 246.339844 520.714844 241.726562 C 521.679688 240.984375 523.074219 241.167969 523.808594 242.132812 C 524.554688 243.097656 524.375 244.484375 523.410156 245.226562 C 516.757812 250.324219 504.136719 254.296875 487.144531 251.460938 Z M 681.667969 492.183594 C 681.578125 492.199219 681.113281 492.292969 680.636719 491.976562 C 680.496094 491.882812 680.367188 491.753906 680.265625 491.609375 C 680.160156 491.460938 680.109375 491.285156 680.058594 491.109375 C 680.03125 491.050781 680.058594 491.046875 679.902344 490.355469 C 678.628906 484.515625 675.546875 470.722656 673.265625 458.507812 C 671.472656 448.878906 670.3125 441.460938 669.511719 435.878906 C 669.332031 434.585938 668.441406 428.105469 667.902344 422.585938 C 667.296875 416.578125 667.0625 412.894531 667.011719 412.050781 C 666.636719 405.886719 666.574219 402.078125 666.535156 399.9375 C 666.46875 394.703125 666.507812 386.925781 667.386719 377.800781 C 668.03125 371.109375 669.0625 365.613281 669.253906 364.5625 C 669.976562 360.628906 671.007812 356.117188 672.515625 351.207031 C 672.605469 350.945312 672.59375 350.941406 672.773438 350.726562 C 672.824219 350.660156 673.121094 350.289062 673.675781 350.226562 C 673.753906 350.214844 674.242188 350.15625 674.695312 350.515625 C 674.757812 350.570312 675.132812 350.867188 675.199219 351.421875 C 675.222656 351.601562 675.183594 351.78125 675.160156 351.960938 C 675.132812 352.101562 673.984375 356.101562 672.941406 362.355469 C 672.554688 364.664062 671.460938 371.121094 670.96875 381.285156 C 670.722656 386.394531 670.648438 392.210938 670.816406 398.652344 C 670.828125 399.269531 670.890625 402.042969 671.109375 406.398438 C 671.1875 407.824219 671.265625 409.582031 671.640625 414.746094 C 671.703125 415.648438 671.988281 419.742188 672.605469 426.003906 C 672.710938 427.007812 673.171875 431.683594 674.039062 438.507812 C 674.605469 442.992188 675.738281 451.664062 678.253906 466.148438 C 679.660156 474.179688 680.753906 479.863281 682.597656 489.816406 C 682.726562 490.515625 682.738281 490.511719 682.738281 490.574219 C 682.738281 490.753906 682.777344 490.9375 682.738281 491.113281 C 682.726562 491.195312 682.636719 491.660156 682.171875 491.972656 C 681.941406 492.125 681.941406 492.128906 681.667969 492.183594 Z M 686.464844 364.238281 C 686.800781 364.136719 687.058594 363.863281 687.394531 363.769531 C 687.5625 363.71875 687.742188 363.769531 687.910156 363.824219 C 687.988281 363.847656 688.464844 363.992188 688.722656 364.503906 C 688.980469 365 688.835938 365.453125 688.8125 365.53125 C 688.722656 365.820312 688.539062 366.015625 688.515625 366.050781 C 688.4375 366.140625 688.375 366.203125 687.601562 367.285156 C 687.484375 367.453125 686.660156 368.558594 685.460938 370.3125 C 685.277344 370.574219 684.261719 372.007812 683.011719 373.945312 C 682.675781 374.460938 682.457031 374.757812 681.8125 375.769531 C 681.605469 376.105469 681.398438 376.382812 680.792969 377.328125 C 680.742188 377.414062 680.445312 377.824219 679.941406 378.574219 C 679.8125 378.765625 679.582031 379.082031 679.015625 379.917969 C 678.976562 379.988281 678.640625 380.457031 678.175781 381.152344 C 678.046875 381.34375 677.761719 381.738281 677.351562 382.378906 C 677.324219 382.429688 676.5 383.625 675.570312 385.277344 C 675.222656 385.890625 675.003906 386.328125 675.003906 386.339844 C 674.914062 386.496094 674.851562 386.671875 674.734375 386.808594 C 674.359375 387.222656 673.882812 387.246094 673.792969 387.25 C 673.210938 387.28125 672.851562 386.957031 672.785156 386.898438 C 672.375 386.523438 672.347656 386.050781 672.347656 385.96875 C 672.335938 385.886719 672.335938 385.746094 672.527344 384.957031 C 672.785156 383.957031 673.121094 382.773438 673.960938 380.730469 C 674.011719 380.585938 674.476562 379.554688 674.667969 379.15625 C 675.261719 377.933594 675.570312 377.398438 676.046875 376.550781 C 676.074219 376.507812 676.152344 376.351562 676.757812 375.414062 C 676.976562 375.058594 677.042969 374.941406 677.800781 373.894531 C 677.929688 373.710938 678.203125 373.308594 679.515625 371.671875 C 679.8125 371.308594 680.675781 370.320312 680.78125 370.203125 C 682.367188 368.367188 683.242188 367.46875 683.976562 366.707031 C 685.757812 364.859375 686.234375 364.480469 686.402344 364.308594 C 686.414062 364.285156 686.4375 364.257812 686.464844 364.234375 Z M 686.464844 364.238281 L 686.464844 364.234375 L 686.453125 364.246094 C 686.453125 364.242188 686.464844 364.242188 686.464844 364.238281 Z M 699.484375 510.828125 C 699.460938 510.75 699.332031 510.285156 699.601562 509.789062 C 699.679688 509.636719 699.796875 509.496094 699.9375 509.386719 C 700.078125 509.273438 700.246094 509.203125 700.414062 509.132812 C 700.464844 509.117188 700.464844 509.132812 700.957031 508.972656 L 711.050781 505.707031 L 728.96875 499.855469 C 729.886719 499.558594 734.953125 497.953125 736.023438 497.625 C 741.488281 495.957031 741.746094 495.910156 742.195312 495.78125 C 745.675781 494.78125 745.675781 494.78125 749.183594 493.84375 C 752.355469 492.992188 757.203125 491.773438 760.941406 490.90625 C 767.335938 489.417969 770.300781 488.800781 771.640625 488.515625 C 772.761719 488.28125 773.742188 488.074219 773.742188 488.074219 C 773.921875 488.066406 774.105469 488.027344 774.285156 488.054688 C 774.375 488.066406 774.839844 488.140625 775.175781 488.585938 C 775.226562 488.652344 775.523438 489.046875 775.433594 489.625 C 775.417969 489.707031 775.355469 490.183594 774.902344 490.507812 C 774.761719 490.613281 774.582031 490.664062 774.414062 490.730469 C 774.386719 490.738281 772.390625 491.316406 769.011719 492.328125 L 759.394531 495.214844 L 746.863281 499.003906 C 746.542969 499.101562 745.34375 499.445312 742.300781 500.355469 C 741.835938 500.496094 740.6875 500.8125 737.273438 501.804688 C 736.253906 502.101562 735.765625 502.230469 731.25 503.519531 C 730.308594 503.789062 730.308594 503.789062 719.457031 506.828125 C 719.429688 506.839844 717.238281 507.460938 711.460938 509.03125 C 703.238281 511.265625 702.320312 511.445312 701.546875 511.660156 C 701.417969 511.695312 701.304688 511.730469 701.175781 511.765625 C 701.097656 511.789062 700.632812 511.921875 700.128906 511.648438 C 699.640625 511.371094 699.5 510.910156 699.484375 510.828125 Z M 766.074219 511.847656 C 766.097656 511.925781 766.226562 512.386719 765.957031 512.886719 C 765.878906 513.042969 765.761719 513.183594 765.621094 513.292969 C 765.492188 513.410156 765.3125 513.476562 765.144531 513.550781 C 765.027344 513.597656 764.898438 513.617188 764.785156 513.65625 C 763.558594 514.0625 763.070312 514.238281 757.449219 516.070312 C 750.242188 518.417969 750.242188 518.429688 743.007812 520.714844 C 736.601562 522.742188 735.066406 523.191406 732.875 523.84375 C 731.585938 524.230469 729.859375 524.753906 726.003906 525.808594 C 725.914062 525.832031 724.960938 526.109375 721.957031 526.851562 C 721.609375 526.9375 719.480469 527.480469 715.34375 528.34375 C 713.898438 528.640625 711.605469 529.058594 711.28125 529.121094 C 708.007812 529.714844 704.773438 530.175781 704.203125 530.257812 C 699.988281 530.863281 696.882812 531.242188 696.238281 531.320312 C 694.019531 531.589844 691.6875 531.863281 691.6875 531.863281 C 691.507812 531.851562 691.324219 531.871094 691.144531 531.824219 C 691.066406 531.804688 690.605469 531.679688 690.308594 531.21875 C 690.308594 531.214844 690.125 530.726562 690.125 530.726562 C 690.125 530.550781 690.101562 530.371094 690.152344 530.199219 C 690.28125 529.667969 690.679688 529.410156 690.757812 529.367188 C 690.914062 529.269531 691.09375 529.21875 691.261719 529.160156 C 691.273438 529.15625 693.789062 528.660156 696.792969 528.050781 C 697.808594 527.84375 701.03125 527.214844 704.914062 526.375 C 704.992188 526.355469 707.246094 525.886719 710.882812 525.050781 C 711.269531 524.964844 712.75 524.625 715.679688 523.90625 C 715.679688 523.90625 715.679688 523.917969 720.203125 522.761719 C 722.445312 522.183594 722.691406 522.101562 724.378906 521.667969 C 726.917969 521.011719 726.917969 520.996094 730.039062 520.175781 L 738.484375 517.921875 L 759.714844 512.171875 C 761.855469 511.597656 761.855469 511.609375 763.996094 511.03125 C 764.332031 510.941406 764.332031 510.925781 764.359375 510.925781 C 764.539062 510.910156 764.71875 510.859375 764.898438 510.875 C 764.988281 510.886719 765.453125 510.933594 765.816406 511.367188 C 765.980469 511.578125 765.996094 511.582031 766.074219 511.847656 Z M 753.050781 573.269531 C 753.027344 573.351562 752.910156 573.816406 752.421875 574.105469 C 752.265625 574.195312 752.097656 574.257812 751.929688 574.285156 C 751.542969 574.339844 751.542969 574.285156 751.15625 574.199219 C 751.144531 574.195312 746.929688 573.339844 745.574219 573.074219 C 745.136719 572.988281 743.023438 572.578125 740.121094 572.066406 C 737.554688 571.613281 735.351562 571.28125 732.140625 570.898438 C 731.84375 570.863281 730.878906 570.746094 728.492188 570.523438 C 727.023438 570.382812 726.90625 570.394531 725.476562 570.277344 C 724.277344 570.175781 724.277344 570.1875 722.394531 570.054688 C 722.136719 570.035156 721.722656 570.007812 719.160156 569.851562 C 717.703125 569.765625 716.039062 569.6875 713.0625 569.527344 C 710.597656 569.394531 710.597656 569.410156 708.136719 569.277344 C 706.707031 569.203125 705.429688 569.136719 705.429688 569.136719 C 705.25 569.15625 705.066406 569.226562 704.902344 569.195312 C 704.371094 569.105469 704.179688 568.554688 704.152344 568.476562 C 704.128906 568.382812 703.921875 567.804688 704.140625 567.261719 C 704.347656 566.75 704.785156 566.554688 704.863281 566.523438 C 705.183594 566.378906 705.195312 566.410156 705.558594 566.382812 C 708.058594 566.199219 709.285156 566.105469 712.675781 565.914062 C 714.722656 565.796875 716.773438 565.703125 719.945312 565.679688 C 720.253906 565.679688 722.382812 565.6875 723.734375 565.75 C 725.707031 565.84375 726.507812 565.917969 726.753906 565.941406 C 729.394531 566.191406 730.734375 566.40625 731.304688 566.496094 C 732.617188 566.695312 734.371094 566.972656 737.53125 567.675781 C 741.347656 568.523438 744.167969 569.316406 745.511719 569.6875 C 749.582031 570.820312 751.570312 571.46875 751.839844 571.542969 C 752.214844 571.652344 752.238281 571.605469 752.550781 571.839844 C 752.613281 571.890625 753 572.175781 753.078125 572.726562 C 753.117188 573.003906 753.066406 573.226562 753.050781 573.269531 Z M 494.480469 720.433594 C 494.519531 720.5 494.761719 720.925781 494.609375 721.464844 C 494.558594 721.632812 494.480469 721.800781 494.363281 721.941406 C 494.171875 722.1875 494.15625 722.175781 493.886719 722.328125 C 493.617188 722.484375 492.660156 723.242188 489.464844 724.46875 C 488.316406 724.90625 485.933594 725.679688 484.875 725.960938 C 483.535156 726.335938 483.1875 726.414062 483.042969 726.453125 C 481.792969 726.734375 481.730469 726.75 481.613281 726.773438 C 480.261719 727.03125 480.261719 727.019531 480.003906 727.058594 C 479.0625 727.199219 479.023438 727.210938 478.429688 727.289062 C 477.140625 727.445312 476.910156 727.484375 475.398438 727.636719 C 474.277344 727.753906 472.949219 727.921875 472.371094 728.023438 C 472.125 728.0625 472.046875 728.089844 472.023438 728.089844 C 471.839844 728.113281 471.675781 728.179688 471.492188 728.179688 C 470.9375 728.164062 470.605469 727.816406 470.550781 727.765625 C 470.152344 727.339844 470.164062 726.851562 470.164062 726.761719 C 470.179688 726.207031 470.527344 725.886719 470.589844 725.820312 C 470.65625 725.757812 470.796875 725.628906 471.6875 725.214844 C 472.449219 724.878906 473.195312 724.570312 475.117188 723.941406 C 475.195312 723.914062 476.199219 723.59375 476.871094 723.398438 C 478.121094 723.050781 478.121094 723.050781 478.363281 723 C 479.152344 722.792969 479.136719 722.792969 479.925781 722.613281 C 480.53125 722.484375 480.53125 722.472656 481.125 722.355469 C 482.078125 722.1875 482.078125 722.175781 482.75 722.070312 C 483.753906 721.902344 483.753906 721.890625 484.757812 721.738281 C 484.8125 721.722656 486.578125 721.464844 488.898438 720.976562 C 489.027344 720.949219 490.433594 720.667969 491.863281 720.191406 C 492.210938 720.074219 492.441406 719.984375 492.519531 719.957031 C 492.570312 719.933594 492.558594 719.921875 492.625 719.894531 C 492.789062 719.84375 492.957031 719.753906 493.140625 719.738281 C 493.214844 719.726562 493.695312 719.675781 494.132812 720.023438 C 494.351562 720.191406 494.351562 720.191406 494.480469 720.433594 Z M 483.25 707.691406 C 483.316406 707.746094 483.703125 708.027344 483.765625 708.59375 C 483.792969 708.777344 483.78125 708.957031 483.726562 709.125 C 483.636719 709.511719 483.574219 709.484375 483.355469 709.804688 C 482.773438 710.628906 481.332031 712.601562 478.261719 714.792969 C 476.6875 715.914062 474.882812 716.828125 474.574219 716.984375 C 473.273438 717.652344 472.136719 718.140625 470.628906 718.695312 C 470.605469 718.695312 469.84375 718.992188 468.285156 719.441406 C 468.179688 719.46875 467.664062 719.636719 466.144531 719.957031 C 466.117188 719.957031 465.539062 720.101562 464.09375 720.320312 C 460.933594 720.796875 458.058594 720.769531 457.945312 720.769531 C 456.253906 720.785156 454.980469 720.730469 453.304688 720.589844 C 453.277344 720.589844 453.046875 720.5625 453.046875 720.5625 C 452.863281 720.527344 452.671875 720.527344 452.503906 720.460938 C 452.441406 720.421875 451.988281 720.242188 451.78125 719.726562 C 451.742188 719.648438 451.550781 719.199219 451.769531 718.65625 C 451.808594 718.578125 451.988281 718.140625 452.503906 717.9375 C 452.554688 717.910156 452.660156 717.871094 453.277344 717.808594 C 454.578125 717.679688 456.398438 717.421875 457.519531 717.238281 C 457.828125 717.1875 459.441406 716.917969 460.546875 716.699219 C 461.191406 716.570312 461.671875 716.480469 462.6875 716.25 C 462.804688 716.222656 463.550781 716.066406 464.558594 715.824219 C 464.90625 715.734375 465.472656 715.617188 466.515625 715.332031 C 466.761719 715.269531 467.445312 715.113281 468.695312 714.753906 C 468.785156 714.726562 469.816406 714.46875 471.710938 713.8125 C 472.332031 713.605469 474.703125 712.796875 477.203125 711.273438 C 477.5 711.105469 479.472656 709.949219 481.203125 708.09375 C 481.277344 708.003906 481.316406 707.9375 481.332031 707.9375 C 481.460938 707.808594 481.574219 707.667969 481.742188 707.578125 C 481.808594 707.539062 482.21875 707.308594 482.761719 707.449219 C 483.03125 707.527344 483.03125 707.527344 483.25 707.691406 Z M 465.859375 656.503906 C 465.859375 656.582031 465.859375 657.074219 465.449219 657.460938 C 465.320312 657.589844 465.164062 657.691406 465.007812 657.753906 C 464.636719 657.898438 464.621094 657.847656 464.222656 657.847656 C 463.617188 657.847656 460.25 658 453.765625 657.679688 C 452.335938 657.613281 447.410156 657.277344 443.621094 656.855469 C 440.21875 656.480469 439.199219 656.339844 438.761719 656.273438 C 437.035156 656.042969 437.035156 656.042969 435.304688 655.769531 C 432.945312 655.398438 432.945312 655.386719 430.585938 654.972656 C 430.382812 654.933594 428.433594 654.558594 427.339844 654.355469 C 427.144531 654.316406 427.144531 654.316406 424.851562 653.863281 C 424.21875 653.734375 418.738281 652.613281 418.378906 652.539062 C 416.523438 652.152344 415.222656 651.878906 415.207031 651.878906 C 415.039062 651.84375 414.847656 651.828125 414.691406 651.738281 C 414.203125 651.480469 414.097656 650.992188 414.074219 650.914062 C 413.929688 650.320312 414.1875 649.910156 414.226562 649.832031 C 414.511719 649.355469 414.976562 649.238281 415.054688 649.214844 C 415.402344 649.125 415.414062 649.160156 415.761719 649.1875 C 419.746094 649.523438 419.746094 649.523438 423.714844 649.921875 C 426.734375 650.230469 430.148438 650.628906 432.03125 650.886719 C 433.617188 651.09375 433.617188 651.082031 435.191406 651.300781 C 436.722656 651.519531 436.722656 651.507812 438.257812 651.75 C 439.933594 652.023438 439.933594 652.007812 441.625 652.28125 C 443.867188 652.640625 444.007812 652.652344 445.621094 652.910156 C 447.078125 653.15625 450.46875 653.695312 455.46875 654.289062 C 455.648438 654.316406 458.445312 654.664062 462.765625 655 C 464.132812 655.101562 464.222656 655.101562 464.339844 655.101562 C 464.699219 655.113281 464.710938 655.074219 465.046875 655.230469 C 465.125 655.257812 465.5625 655.449219 465.769531 655.964844 C 465.871094 656.222656 465.871094 656.222656 465.859375 656.503906 Z M 441.648438 689.617188 C 441.648438 689.695312 441.636719 690.183594 441.222656 690.570312 C 441.109375 690.6875 440.953125 690.789062 440.785156 690.855469 C 440.410156 690.996094 440.398438 690.945312 440 690.945312 C 439.445312 690.945312 436.429688 691.085938 429.402344 690.828125 C 427.765625 690.765625 425.019531 690.597656 424.632812 690.582031 C 422.425781 690.441406 420.636719 690.3125 420.171875 690.289062 C 419.667969 690.25 416.304688 689.953125 415.671875 689.886719 C 412.695312 689.578125 412.28125 689.515625 411.984375 689.476562 C 408.941406 689.074219 408.941406 689.074219 405.898438 688.585938 C 405.679688 688.546875 403.152344 688.121094 402.316406 687.96875 C 400.34375 687.59375 399.363281 687.414062 395.765625 686.667969 C 395.046875 686.511719 394.140625 686.332031 390.660156 685.546875 C 390.625 685.53125 390.300781 685.46875 390.300781 685.46875 C 390.132812 685.390625 389.953125 685.339844 389.796875 685.25 C 389.734375 685.199219 389.332031 684.925781 389.203125 684.398438 C 389.203125 684.398438 389.179688 683.882812 389.179688 683.882812 C 389.242188 683.730469 389.269531 683.550781 389.359375 683.40625 C 389.65625 682.957031 390.121094 682.828125 390.210938 682.800781 C 390.558594 682.710938 390.558594 682.738281 390.917969 682.777344 L 397.429688 683.457031 C 399.789062 683.691406 400.203125 683.714844 404.480469 684.179688 L 409.289062 684.707031 C 410.039062 684.785156 410.28125 684.824219 412.527344 685.082031 C 413.105469 685.160156 413.621094 685.238281 416.175781 685.558594 C 416.523438 685.597656 416.523438 685.609375 420.53125 686.136719 C 421.191406 686.214844 424.542969 686.707031 431.207031 687.425781 C 431.824219 687.492188 434.84375 687.8125 438.914062 688.121094 C 440.28125 688.226562 440.28125 688.210938 440.308594 688.210938 C 440.398438 688.210938 440.875 688.226562 441.273438 688.636719 C 441.660156 689.050781 441.648438 689.527344 441.648438 689.617188 Z M 382.902344 640.246094 C 382.8125 640.238281 382.332031 640.199219 381.972656 639.765625 C 381.855469 639.628906 381.765625 639.472656 381.714844 639.304688 C 381.597656 638.957031 381.636719 638.953125 381.664062 638.585938 C 381.78125 636.890625 381.355469 625.835938 381.316406 624.726562 L 380.824219 611.296875 C 380.824219 611.132812 380.785156 609.835938 380.671875 606.207031 C 380.632812 605.128906 380.632812 605.128906 380.542969 600.886719 C 380.527344 600.125 380.527344 600.125 380.503906 596.769531 C 380.503906 595.746094 380.503906 595.746094 380.515625 592.5625 C 380.515625 590.019531 380.582031 585.199219 380.695312 581.074219 C 380.839844 575.628906 380.839844 575.628906 381.042969 570.1875 C 381.042969 570.128906 381.070312 569.464844 381.070312 569.460938 C 381.109375 569.285156 381.109375 569.097656 381.1875 568.933594 C 381.210938 568.855469 381.40625 568.417969 381.910156 568.199219 C 382.476562 567.957031 383.273438 568.164062 383.390625 568.195312 C 383.46875 568.214844 384.203125 568.402344 384.125 568.917969 C 384.113281 569.011719 384.074219 569.097656 384.023438 569.175781 C 383.867188 569.457031 383.804688 569.425781 383.804688 569.453125 L 384.046875 574.511719 L 384.34375 581.039062 C 384.539062 585.019531 384.628906 588.085938 384.746094 591.09375 C 384.757812 591.433594 384.757812 591.433594 384.859375 595.316406 C 384.886719 596.03125 384.886719 596.03125 384.949219 599.460938 C 384.976562 600.503906 384.964844 600.503906 384.988281 603.511719 C 385.003906 606.117188 385.003906 606.117188 384.988281 608.722656 C 384.988281 609.1875 385.015625 609.246094 384.925781 618.347656 C 384.898438 621.121094 384.875 624.546875 384.757812 630.109375 C 384.640625 635.417969 384.539062 636.941406 384.382812 638.925781 C 384.359375 639.234375 384.371094 639.242188 384.230469 639.515625 C 384.101562 639.75 383.933594 639.898438 383.894531 639.925781 C 383.457031 640.292969 382.976562 640.253906 382.902344 640.246094 Z M 345.667969 683.175781 C 345.605469 683.125 345.230469 682.816406 345.179688 682.261719 C 345.152344 682.082031 345.167969 681.898438 345.21875 681.730469 C 345.335938 681.347656 345.386719 681.371094 345.628906 681.0625 C 345.644531 681.035156 347.859375 678.035156 349.304688 675.984375 C 349.550781 675.652344 351.984375 672.210938 353.867188 669.144531 C 353.894531 669.105469 355.375 666.734375 356.730469 663.992188 C 356.871094 663.722656 357.59375 662.25 358.226562 660.550781 C 358.238281 660.511719 358.664062 659.40625 359.039062 657.792969 C 359.101562 657.550781 359.527344 655.769531 359.425781 653.773438 C 359.296875 651.25 358.433594 649.007812 357.335938 646.804688 C 356.832031 645.800781 355.957031 644.136719 353.300781 640.015625 C 353.121094 639.71875 353.109375 639.722656 353.09375 639.691406 C 353.015625 639.527344 352.902344 639.378906 352.863281 639.207031 C 352.722656 638.667969 352.980469 638.253906 353.015625 638.183594 C 353.328125 637.6875 353.792969 637.574219 353.882812 637.554688 C 354.421875 637.421875 354.824219 637.667969 354.898438 637.710938 C 355.054688 637.800781 355.171875 637.945312 355.300781 638.070312 C 355.3125 638.070312 356.046875 638.960938 356.757812 639.84375 C 357.992188 641.359375 360.070312 644.007812 361.460938 646.558594 C 362.671875 648.8125 363.523438 651.132812 363.730469 653.75 C 363.832031 655.035156 363.808594 656.53125 363.410156 658.503906 C 363.34375 658.8125 363.046875 660.433594 361.953125 663 C 361.460938 664.132812 360.753906 665.445312 360.636719 665.652344 C 360.121094 666.605469 358.574219 669.441406 354.785156 674.386719 C 354.398438 674.878906 351.972656 677.996094 348.800781 681.601562 C 347.886719 682.648438 347.875 682.632812 347.601562 682.980469 C 347.550781 683.046875 347.242188 683.421875 346.675781 683.472656 C 346.109375 683.535156 345.734375 683.226562 345.667969 683.175781 Z M 310.550781 671.050781 C 310.566406 671.128906 310.589844 671.605469 310.214844 672.042969 C 310.101562 672.171875 309.957031 672.289062 309.804688 672.367188 C 309.648438 672.441406 309.46875 672.46875 309.289062 672.507812 C 309.183594 672.535156 309.183594 672.507812 308.0625 672.597656 C 305.058594 672.84375 295.84375 673.539062 281.609375 673.214844 C 276.492188 673.113281 265.378906 672.753906 250.5 671.128906 C 249.316406 671 242.652344 670.238281 236.410156 669.285156 C 230.453125 668.382812 226.84375 667.714844 226.019531 667.558594 C 219.355469 666.335938 215.28125 665.421875 213.992188 665.136719 C 208.269531 663.886719 200.917969 662.148438 191.210938 659.390625 C 185.449219 657.753906 179.621094 655.886719 178.617188 655.566406 C 177.726562 655.28125 172.117188 653.503906 164.316406 650.683594 C 163.777344 650.488281 163.570312 650.0625 163.53125 649.988281 C 163.453125 649.832031 163.402344 649.664062 163.394531 649.484375 C 163.386719 649.40625 163.351562 648.917969 163.734375 648.480469 C 163.789062 648.414062 164.105469 648.054688 164.660156 648.015625 C 164.839844 648.003906 165.019531 648.054688 165.199219 648.09375 C 165.246094 648.105469 169.644531 649.523438 175.703125 651.273438 C 177.378906 651.75 184.429688 653.839844 195.078125 656.46875 C 195.632812 656.609375 201.152344 657.960938 207.121094 659.277344 C 213.101562 660.589844 217.226562 661.402344 220.925781 662.125 C 222.125 662.34375 223.699219 662.664062 229.695312 663.734375 C 230.621094 663.886719 234.929688 664.660156 241.179688 665.613281 C 242.265625 665.78125 247.71875 666.621094 254.753906 667.46875 C 258.636719 667.933594 269.234375 669.183594 282.667969 669.789062 C 283.207031 669.816406 294.707031 670.40625 306.414062 669.917969 C 308.746094 669.828125 309.070312 669.777344 309.09375 669.777344 C 309.261719 669.800781 309.457031 669.789062 309.625 669.851562 C 309.699219 669.878906 310.152344 670.019531 310.410156 670.523438 C 310.527344 670.769531 310.539062 670.769531 310.550781 671.050781 Z M 266.914062 591.804688 C 266.898438 591.867188 266.785156 592.210938 266.371094 592.421875 C 266.242188 592.488281 266.101562 592.535156 265.957031 592.550781 C 265.933594 592.554688 265.699219 592.582031 265.519531 592.527344 C 263.34375 591.898438 247.214844 587.183594 236.257812 584.082031 C 232.867188 583.125 232.867188 583.117188 224.796875 580.863281 L 206.230469 575.707031 C 205.304688 575.445312 204.363281 575.164062 200.042969 573.945312 C 199.65625 573.835938 197.992188 573.347656 194.332031 572.308594 L 188.441406 570.617188 L 172.25 565.933594 C 171.890625 565.832031 171.871094 565.855469 171.59375 565.609375 C 171.539062 565.566406 171.238281 565.300781 171.160156 564.894531 C 171.152344 564.863281 171.105469 564.625 171.164062 564.507812 C 171.226562 564.378906 171.265625 564.234375 171.351562 564.117188 C 171.621094 563.757812 172.003906 563.695312 172.070312 563.683594 C 172.214844 563.660156 172.363281 563.683594 172.511719 563.695312 C 172.535156 563.699219 178.746094 564.996094 179.492188 565.160156 C 189.214844 567.269531 191.519531 567.828125 191.519531 567.828125 C 193.636719 568.316406 195.15625 568.660156 200.351562 569.929688 C 200.957031 570.074219 205.496094 571.210938 208.011719 571.886719 C 212.25 573.023438 212.972656 573.226562 213.398438 573.351562 C 218.402344 574.78125 220.078125 575.289062 220.65625 575.464844 C 226.664062 577.277344 229.964844 578.324219 234.566406 579.800781 C 242.121094 582.21875 250.128906 584.917969 259.511719 588.113281 C 261.242188 588.699219 266.191406 590.40625 266.191406 590.410156 C 266.320312 590.480469 266.460938 590.53125 266.578125 590.628906 C 266.628906 590.671875 266.925781 590.925781 266.964844 591.371094 C 266.976562 591.59375 266.976562 591.59375 266.914062 591.804688 Z M 35.707031 585.515625 C 35.621094 585.523438 35.144531 585.566406 34.707031 585.199219 C 34.570312 585.089844 34.457031 584.949219 34.375 584.792969 C 34.203125 584.46875 34.25 584.453125 34.203125 584.085938 C 34.195312 584.003906 33.773438 581.367188 33.441406 578.328125 C 33.1875 575.988281 32.796875 571.753906 33.59375 568.4375 C 34.136719 566.171875 35 564.800781 35.511719 564.0625 C 36.203125 563.0625 36.804688 562.460938 37.265625 562.019531 C 37.941406 561.382812 38.738281 560.710938 40.109375 559.839844 C 40.4375 559.632812 41.21875 559.140625 42.808594 558.351562 C 42.828125 558.339844 44.113281 557.71875 45.324219 557.226562 C 45.605469 557.113281 47.09375 556.511719 48.867188 555.886719 C 49.535156 555.648438 51.609375 554.964844 51.632812 554.960938 C 51.816406 554.9375 51.996094 554.878906 52.179688 554.886719 C 52.261719 554.890625 52.746094 554.910156 53.132812 555.28125 C 53.75 555.871094 53.449219 556.597656 53.40625 556.703125 C 53.339844 556.867188 53.242188 557.023438 53.121094 557.152344 C 52.894531 557.40625 52.878906 557.390625 52.578125 557.546875 C 52.316406 557.679688 51.140625 558.285156 49.351562 559.238281 C 49.085938 559.382812 47.8125 560.058594 46.078125 561.070312 C 45.75 561.261719 44.386719 562.066406 43.332031 562.789062 C 42.433594 563.40625 41.691406 563.953125 40.839844 564.710938 C 40.683594 564.851562 40.230469 565.246094 39.527344 566.0625 C 38.234375 567.570312 37.746094 569.199219 37.648438 569.523438 C 37.085938 571.375 36.820312 573.367188 36.8125 577.488281 C 36.808594 578.203125 36.792969 578.335938 36.917969 583.21875 C 36.929688 583.6875 36.925781 583.765625 36.949219 584.03125 C 36.957031 584.113281 37 584.59375 36.636719 585.03125 C 36.269531 585.464844 35.789062 585.507812 35.707031 585.515625 Z M 382.578125 535.65625 C 382.488281 535.648438 382.011719 535.613281 381.636719 535.179688 C 381.523438 535.046875 381.429688 534.890625 381.378906 534.722656 C 381.328125 534.550781 381.316406 534.367188 381.316406 534.183594 C 381.316406 534.121094 381.328125 534.121094 381.367188 533.367188 C 381.394531 532.683594 381.625 527.699219 381.753906 523.792969 C 381.871094 520.636719 382.039062 514.625 382.113281 511.425781 L 382.359375 499.570312 C 382.398438 497.734375 382.398438 497.738281 382.4375 495.902344 C 382.515625 492.769531 382.5 492.769531 382.566406 490.8125 C 382.65625 488.144531 382.644531 488.144531 382.746094 485.476562 C 382.847656 483.035156 382.835938 483.035156 382.953125 480.59375 L 383.3125 472.507812 C 383.351562 471.832031 383.351562 471.832031 383.75 464.046875 C 383.789062 463.214844 384.035156 458.582031 384.0625 458.105469 C 384.074219 458.023438 384.101562 457.542969 384.511719 457.144531 C 384.628906 457.023438 384.78125 456.921875 384.9375 456.855469 C 384.9375 456.855469 385.453125 456.757812 385.453125 456.757812 C 385.632812 456.792969 385.816406 456.800781 385.96875 456.871094 C 386.472656 457.09375 386.652344 457.535156 386.691406 457.613281 C 386.753906 457.777344 386.78125 457.964844 386.808594 458.144531 C 386.808594 458.160156 386.949219 463.792969 386.949219 464.097656 C 387.078125 470.621094 387.089844 473.292969 387.105469 474.09375 C 387.105469 474.425781 387.140625 479.203125 387.105469 483.511719 C 387.066406 487.550781 387.066406 487.546875 386.976562 491.585938 C 386.960938 492.042969 386.949219 492.519531 386.769531 497.28125 C 386.753906 497.722656 386.496094 502.890625 386.40625 504.414062 C 386.046875 510.585938 385.738281 515 385.542969 517.765625 C 385.542969 517.789062 385.234375 521.84375 384.796875 526.714844 C 384.292969 532.320312 384.152344 533.105469 384.046875 534.398438 C 384.035156 534.480469 383.996094 534.960938 383.570312 535.332031 C 383.132812 535.699219 382.65625 535.664062 382.578125 535.65625 Z M 386.238281 425.242188 C 386.164062 425.25 385.683594 425.308594 385.234375 424.957031 C 385.09375 424.84375 384.976562 424.707031 384.886719 424.558594 C 384.691406 424.214844 384.746094 424.199219 384.691406 423.808594 C 384.640625 423.390625 384.511719 422.875 384.007812 419.527344 C 383.726562 417.609375 383.289062 414.558594 383.183594 413.789062 C 382.167969 406.28125 382.140625 406.28125 382.039062 405.570312 C 381.6875 403.046875 381.675781 403.046875 381.417969 401.210938 C 381.148438 399.265625 381.109375 399.152344 380.980469 398.183594 C 380.773438 396.65625 380.761719 396.65625 380.554688 395.125 C 380.515625 394.863281 380.453125 394.378906 380.078125 391.835938 C 380.050781 391.617188 379.664062 389.023438 379.355469 387.191406 C 379.238281 386.527344 378.996094 384.863281 378.464844 382.117188 C 378.3125 381.375 378.257812 380.980469 377.757812 378.558594 C 377.707031 378.292969 377.679688 378.292969 377.707031 378.023438 C 377.769531 377.46875 378.15625 377.175781 378.222656 377.125 C 378.683594 376.765625 379.164062 376.828125 379.253906 376.835938 C 379.792969 376.910156 380.089844 377.28125 380.140625 377.347656 C 380.375 377.621094 380.335938 377.644531 380.453125 377.976562 C 381.261719 380.292969 381.753906 381.941406 381.871094 382.289062 C 382.707031 385.046875 383.144531 386.738281 383.234375 387.125 C 383.558594 388.351562 383.855469 389.519531 384.371094 391.972656 C 384.449219 392.328125 384.886719 394.550781 384.976562 395.132812 C 385.183594 396.328125 385.296875 397.15625 385.414062 397.902344 C 385.425781 397.984375 385.75 400.414062 385.867188 401.683594 C 386.203125 405.007812 386.304688 406.53125 386.367188 407.511719 C 386.496094 409.277344 386.601562 410.863281 386.78125 413.425781 C 386.847656 414.457031 386.988281 417.101562 387.234375 420.679688 C 387.257812 421.003906 387.296875 421.75 387.398438 423.335938 C 387.425781 423.652344 387.4375 423.707031 387.4375 423.722656 C 387.425781 423.902344 387.453125 424.089844 387.398438 424.261719 C 387.375 424.339844 387.246094 424.800781 386.753906 425.074219 C 386.523438 425.207031 386.511719 425.207031 386.238281 425.242188 Z M 382.695312 435.273438 C 382.617188 435.300781 382.167969 435.464844 381.652344 435.222656 C 381.496094 435.148438 381.339844 435.039062 381.226562 434.910156 C 380.953125 434.613281 381.019531 434.574219 380.851562 434.203125 C 380.800781 434.09375 379.972656 432.28125 379.164062 430.679688 C 379.046875 430.453125 378.53125 429.453125 377.652344 427.878906 C 376.765625 426.265625 376.054688 425.125 374.90625 423.351562 C 374.613281 422.886719 374.613281 422.890625 373.59375 421.363281 C 373.039062 420.539062 373.027344 420.546875 372.484375 419.722656 C 371.941406 418.910156 371.929688 418.917969 371.386719 418.109375 C 371.296875 417.972656 371.167969 417.785156 370.242188 416.441406 C 369.636719 415.566406 368.21875 413.597656 367.25 412.34375 C 367.222656 412.316406 366.101562 410.878906 365.121094 409.734375 C 365.019531 409.605469 364.863281 409.4375 364.863281 409.433594 C 364.761719 409.285156 364.621094 409.15625 364.554688 408.996094 C 364.324219 408.484375 364.492188 408.039062 364.515625 407.960938 C 364.722656 407.421875 365.175781 407.222656 365.253906 407.191406 C 365.753906 406.964844 366.207031 407.128906 366.285156 407.160156 C 366.335938 407.179688 366.488281 407.234375 366.914062 407.570312 C 368.035156 408.453125 369.042969 409.296875 370.511719 410.699219 C 370.78125 410.949219 371.351562 411.488281 372.523438 412.738281 C 372.601562 412.824219 373.527344 413.847656 374.070312 414.515625 C 375.164062 415.847656 375.527344 416.382812 375.773438 416.726562 C 376.261719 417.414062 376.429688 417.632812 377.023438 418.578125 C 377.214844 418.886719 377.667969 419.59375 378.609375 421.320312 C 379.496094 422.96875 380.746094 425.628906 381.574219 427.742188 C 381.6875 428.046875 382.386719 429.84375 382.953125 431.613281 C 383.171875 432.300781 383.402344 433.128906 383.441406 433.261719 C 383.546875 433.65625 383.621094 433.648438 383.597656 434.058594 C 383.597656 434.140625 383.570312 434.617188 383.160156 434.992188 C 382.953125 435.183594 382.734375 435.257812 382.695312 435.273438 Z M 376.160156 538.957031 C 376.144531 539.042969 376.09375 539.519531 375.644531 539.875 C 375.515625 539.984375 375.347656 540.070312 375.179688 540.121094 C 375.011719 540.171875 374.816406 540.167969 374.636719 540.171875 C 374.597656 540.171875 374.597656 540.15625 374.082031 540.117188 L 346.082031 538.019531 C 344.171875 537.871094 344.171875 537.875 342.265625 537.707031 C 340.371094 537.542969 340.371094 537.558594 338.488281 537.363281 C 336.632812 537.171875 335.585938 537.070312 334.699219 536.96875 C 331.863281 536.644531 331.863281 536.652344 329.011719 536.300781 C 325.183594 535.828125 323.238281 535.558594 318.378906 534.863281 C 317.746094 534.773438 316.609375 534.621094 311.558594 533.839844 C 311.53125 533.835938 311.339844 533.808594 311.339844 533.808594 C 311.171875 533.75 310.976562 533.722656 310.824219 533.636719 C 310.757812 533.59375 310.332031 533.363281 310.179688 532.832031 C 310.152344 532.75 310.011719 532.28125 310.292969 531.757812 C 310.332031 531.6875 310.566406 531.253906 311.09375 531.113281 C 311.15625 531.097656 311.285156 531.0625 311.839844 531.097656 L 323.546875 531.804688 C 323.792969 531.816406 323.792969 531.820312 326.539062 532 C 328.175781 532.109375 331.347656 532.335938 332.273438 532.410156 C 334.648438 532.597656 334.648438 532.585938 337.019531 532.796875 C 339.699219 533.035156 339.699219 533.035156 339.75 533.039062 C 339.789062 533.042969 344.199219 533.5 344.289062 533.511719 C 344.378906 533.519531 349.523438 534.105469 349.703125 534.128906 C 349.859375 534.148438 358.910156 535.253906 362.210938 535.691406 C 372.226562 537.023438 374.261719 537.367188 374.625 537.414062 C 374.726562 537.425781 374.832031 537.4375 374.945312 537.449219 C 375.023438 537.457031 375.5 537.507812 375.863281 537.953125 C 376.210938 538.398438 376.160156 538.875 376.160156 538.957031 Z M 630.296875 446.507812 C 630.308594 446.574219 630.335938 446.949219 630.050781 447.289062 C 629.960938 447.394531 629.84375 447.484375 629.726562 447.546875 C 629.597656 447.613281 629.457031 447.644531 629.316406 447.667969 C 629.316406 447.667969 627.988281 447.800781 626.390625 447.945312 C 607.953125 449.601562 606.730469 448.382812 587.753906 450.398438 C 580.261719 451.195312 569.394531 452.546875 552.25 453.4375 C 546.292969 453.746094 539.976562 453.929688 535.902344 454.074219 C 529.402344 454.304688 528.734375 454.34375 520.742188 454.753906 C 516.988281 454.945312 516.988281 454.953125 507.527344 455.503906 C 502.085938 455.820312 498.902344 456.03125 489.492188 456.527344 C 480.777344 456.988281 473.738281 457.253906 472.371094 457.304688 C 461.644531 457.710938 454.851562 457.882812 453.328125 457.921875 C 447.539062 458.066406 442.820312 458.160156 442.820312 458.160156 C 442.679688 458.136719 442.539062 458.136719 442.410156 458.089844 C 442.34375 458.066406 441.996094 457.933594 441.816406 457.539062 C 441.609375 457.121094 441.753906 456.6875 441.777344 456.617188 C 441.789062 456.554688 441.917969 456.144531 442.320312 456.023438 C 442.359375 456.015625 442.359375 456.039062 442.746094 456.015625 C 449.074219 455.644531 450.800781 455.53125 456.101562 455.195312 C 459.722656 454.960938 463.191406 454.773438 479.113281 453.636719 L 506.03125 451.644531 C 506.648438 451.601562 511.417969 451.238281 518.714844 450.808594 C 519.695312 450.753906 522.855469 450.550781 529.042969 450.316406 C 538.726562 449.949219 540.566406 450.070312 550.1875 449.746094 C 561.453125 449.367188 570.066406 448.855469 582.375 447.761719 C 588.757812 447.195312 595.472656 446.550781 604.523438 446.410156 C 611.0625 446.308594 616.21875 446.453125 628.632812 445.566406 C 629.136719 445.53125 629.136719 445.527344 629.136719 445.53125 C 629.277344 445.546875 629.433594 445.535156 629.5625 445.578125 C 629.972656 445.707031 630.152344 446.039062 630.179688 446.097656 C 630.28125 446.289062 630.28125 446.292969 630.296875 446.507812 Z M 467.355469 280.664062 C 467.417969 280.59375 467.714844 280.203125 468.296875 280.125 C 468.476562 280.097656 468.65625 280.109375 468.839844 280.15625 C 469.199219 280.25 469.1875 280.277344 469.46875 280.503906 C 469.535156 280.546875 470.914062 281.621094 472.691406 282.734375 C 475.644531 284.585938 480.761719 287.324219 488.34375 288.679688 C 492.726562 289.464844 497.546875 289.703125 503.167969 289.171875 C 503.234375 289.164062 505.914062 288.953125 510.15625 288.101562 C 510.542969 288.027344 512.15625 287.714844 515.453125 286.863281 C 515.90625 286.746094 518.058594 286.195312 521.089844 285.226562 C 521.539062 285.078125 523.820312 284.351562 526.710938 283.230469 C 534.238281 280.320312 539.332031 277.179688 540.144531 276.6875 C 545.273438 273.554688 548.417969 270.707031 548.472656 270.679688 C 548.625 270.585938 548.78125 270.460938 548.960938 270.402344 C 549.039062 270.375 549.503906 270.210938 550.019531 270.445312 C 550.019531 270.445312 550.457031 270.757812 550.457031 270.761719 C 550.558594 270.917969 550.675781 271.054688 550.738281 271.226562 C 550.933594 271.757812 550.726562 272.210938 550.703125 272.289062 C 550.558594 272.597656 550.546875 272.589844 550.300781 272.828125 C 546.667969 276.421875 543.132812 278.878906 542.425781 279.378906 C 540.296875 280.875 538.363281 282.0625 536.894531 282.917969 C 536.546875 283.121094 534.121094 284.511719 531.464844 285.78125 C 527.726562 287.566406 524.828125 288.644531 522.894531 289.328125 C 522.429688 289.496094 519.734375 290.46875 515.6875 291.511719 C 515.660156 291.519531 514.320312 291.855469 512.605469 292.214844 C 509.808594 292.796875 506.1875 293.421875 501.621094 293.601562 C 498.140625 293.738281 495.085938 293.480469 494.53125 293.433594 C 487.273438 292.820312 482.050781 290.988281 478.75 289.558594 C 472.433594 286.8125 468.875 283.613281 467.742188 282.734375 C 467.457031 282.515625 467.433594 282.53125 467.253906 282.21875 C 467.214844 282.148438 466.96875 281.722656 467.125 281.167969 C 467.1875 280.894531 467.1875 280.890625 467.355469 280.664062 Z M 467.355469 280.664062 " fill-opacity="1" fill-rule="evenodd"/></svg>