<svg xmlns="http://www.w3.org/2000/svg" xmlns:xlink="http://www.w3.org/1999/xlink" width="1080" zoomAndPan="magnify" viewBox="0 0 810 809.999993" height="1080" preserveAspectRatio="xMidYMid meet" version="1.0"><defs><clipPath id="f97223b951"><path d="M 62.566406 60 L 747.316406 60 L 747.316406 750 L 62.566406 750 Z M 62.566406 60 " clip-rule="nonzero"/></clipPath></defs><rect x="-81" width="972" fill="#ffffff" y="-80.999999" height="971.999992" fill-opacity="1"/><rect x="-81" width="972" fill="#ffffff" y="-80.999999" height="971.999992" fill-opacity="1"/><g clip-path="url(#f97223b951)"><path fill="#282829" d="M 747.230469 353.378906 C 747.203125 394.742188 747.121094 436.105469 746.640625 477.46875 C 746.019531 531.125 746.214844 584.792969 746.128906 638.445312 C 746.074219 671.296875 746.035156 704.144531 745.992188 736.976562 C 745.980469 744.199219 744.738281 745.273438 737.429688 745.5625 C 711.046875 746.597656 684.648438 745.753906 658.28125 746.457031 C 621.585938 747.421875 584.878906 747.808594 548.167969 747.960938 C 545.675781 747.972656 543.183594 748.484375 540.71875 748.910156 C 538.007812 749.378906 535.460938 749.0625 533.023438 747.78125 C 532.539062 746.925781 532.390625 746.074219 532.375 745.21875 L 531.5625 745.8125 C 530.738281 746.429688 529.855469 746.691406 528.726562 746.691406 C 527.695312 746.691406 526.550781 746.472656 525.351562 746.238281 C 524.691406 746.113281 524.03125 745.976562 523.371094 745.878906 L 523.066406 745.839844 C 523.039062 746.664062 523.039062 747.476562 523.011719 748.304688 C 513.8125 750.703125 504.710938 748.429688 495.582031 747.699219 C 472.90625 745.894531 450.226562 744.199219 427.589844 741.964844 C 390.097656 738.273438 352.492188 735.890625 314.96875 732.429688 C 286.921875 729.855469 258.820312 727.472656 230.730469 725.292969 C 201.648438 723.046875 172.566406 721.007812 143.542969 718.085938 C 119.941406 715.71875 96.246094 714.367188 72.589844 712.660156 C 62.714844 711.941406 62.675781 712.066406 62.714844 702.132812 C 62.8125 678.390625 62.539062 654.664062 63.707031 630.894531 C 64.753906 609.992188 63.347656 588.980469 63.804688 568.023438 C 64.175781 551.132812 64.65625 534.238281 64.808594 517.332031 C 65.195312 474.867188 65.289062 432.398438 66.351562 389.949219 C 66.957031 365.628906 66.253906 341.308594 67.136719 317.015625 C 68.429688 281.535156 67.769531 246.042969 68.84375 210.578125 C 69.574219 186.683594 69.957031 162.804688 69.726562 138.914062 C 69.585938 124.515625 71.144531 110.183594 70.894531 95.785156 C 70.867188 94.0625 71.335938 93.800781 73.015625 93.761719 C 102.179688 93.058594 131.21875 90.246094 160.285156 88.042969 C 181.558594 86.429688 202.859375 85.09375 224.148438 83.5625 C 249.898438 81.71875 275.632812 79.773438 301.378906 77.957031 C 343.554688 74.980469 385.730469 72.113281 427.90625 69.125 C 460.609375 66.796875 493.296875 64.316406 526 61.945312 C 529.46875 61.699219 532.96875 61.433594 536.421875 62.25 C 536.394531 63.089844 536.394531 63.914062 536.367188 64.757812 L 536.464844 64.769531 L 537.054688 64.605469 C 537.8125 64.398438 538.558594 64.164062 539.300781 63.914062 C 540.953125 63.378906 542.523438 62.867188 544.011719 62.867188 C 544.617188 62.867188 545.179688 62.949219 545.730469 63.117188 L 546.15625 63.242188 L 546.449219 63.226562 C 546.433594 62.414062 546.460938 61.585938 546.449219 60.773438 C 563.246094 59.589844 579.867188 61.960938 596.527344 63.417969 C 618.351562 65.335938 640.160156 67.207031 661.984375 69.042969 C 687.140625 71.148438 712.3125 73.1875 737.46875 75.253906 C 737.746094 75.28125 738.019531 75.351562 738.296875 75.378906 C 746.957031 76 746.957031 76 746.957031 85.011719 C 746.957031 120.792969 746.914062 156.578125 746.96875 192.359375 C 747.039062 246.042969 747.257812 299.710938 747.230469 353.378906 Z M 747.230469 353.378906 " fill-opacity="1" fill-rule="nonzero"/></g><path fill="#484848" d="M 92.128906 234.566406 C 92.101562 224.644531 91.464844 214.667969 92.238281 204.804688 C 93.023438 194.746094 92.167969 184.6875 92.996094 174.695312 C 94.414062 157.390625 93.269531 140.085938 93.710938 122.792969 C 93.835938 117.886719 95.292969 116.371094 100.167969 116.164062 C 113.097656 115.613281 126.042969 115.269531 138.941406 114.402344 C 155.027344 113.324219 171.082031 112.03125 187.164062 110.996094 C 199.777344 110.183594 212.402344 109.398438 225.015625 108.53125 C 241.785156 107.375 258.558594 106.175781 275.328125 105.113281 C 288.078125 104.300781 300.855469 103.597656 313.59375 102.621094 C 329.925781 101.378906 346.296875 100.609375 362.570312 98.679688 C 370.558594 97.730469 378.625 97.355469 386.667969 96.886719 C 402.75 95.964844 418.832031 94.945312 434.902344 93.636719 C 442.792969 92.988281 450.695312 92.535156 458.585938 91.957031 C 474.117188 90.8125 489.675781 90.039062 505.222656 89.335938 C 511.789062 89.035156 512.257812 89.613281 512.078125 96.128906 C 511.03125 135.9375 511.664062 175.742188 511.003906 215.550781 C 510.757812 230.058594 511.074219 244.582031 510.316406 259.0625 C 509.160156 281.082031 509.324219 303.113281 508.511719 325.117188 C 507.589844 350.128906 508.816406 375.121094 507.726562 400.089844 C 506.832031 420.480469 507.921875 440.875 506.902344 461.210938 C 505.730469 484.402344 506.53125 507.5625 506.269531 530.738281 C 506.101562 545.660156 505.71875 560.597656 505.152344 575.503906 C 504.449219 594.039062 504.285156 612.585938 503.515625 631.089844 C 502.496094 655.394531 503.320312 679.671875 502.867188 703.964844 C 502.855469 704.378906 502.867188 704.804688 502.855469 705.21875 C 502.675781 712.230469 500.015625 714.3125 493.0625 713.429688 C 487.144531 712.6875 481.195312 712.230469 475.230469 711.859375 C 467.316406 711.378906 459.382812 711.128906 451.453125 710.769531 C 451.355469 709.078125 450.0625 708.070312 449.152344 706.871094 C 419.039062 666.96875 389.023438 626.996094 358.757812 587.191406 C 331.714844 551.628906 305.402344 515.5 277.738281 480.40625 C 276.167969 478.421875 274.847656 476.285156 274.476562 473.707031 C 291.011719 473.792969 307.523438 473.265625 324.074219 474.191406 C 338.914062 475.015625 353.855469 474.328125 368.738281 474.316406 C 378.625 474.550781 388.539062 474.039062 398.371094 475.335938 C 405.808594 476.3125 407.265625 475.113281 407.265625 467.632812 C 407.265625 411.222656 407.265625 354.796875 407.265625 298.386719 C 407.265625 296.996094 407.375 295.5625 407.117188 294.214844 C 406.714844 292.175781 405.683594 290.78125 403.246094 290.5625 C 391.761719 289.515625 380.304688 288.121094 368.753906 288.207031 C 362.765625 288.152344 356.800781 288.441406 350.8125 288.796875 C 337.359375 289.609375 323.90625 290.769531 310.441406 291.304688 C 291.246094 292.0625 272.066406 293.136719 252.886719 294.046875 C 246.34375 294.351562 239.832031 294.804688 233.277344 294.984375 C 225.757812 295.207031 224.492188 296.914062 224.492188 304.492188 C 224.480469 339.035156 224.480469 373.566406 224.464844 408.109375 C 218.214844 402.582031 214.398438 395.140625 209.304688 388.722656 C 179.21875 350.789062 151.570312 311.007812 121.703125 272.910156 C 111.75 260.207031 101.988281 247.351562 92.128906 234.566406 Z M 480.1875 123.246094 C 480.148438 119.472656 477.519531 116.300781 474.378906 116.246094 C 470.796875 116.179688 467.632812 119.789062 467.726562 123.851562 C 467.824219 127.765625 470.59375 130.578125 474.242188 130.453125 C 477.722656 130.328125 480.230469 127.296875 480.1875 123.246094 Z M 125.574219 146.007812 C 125.601562 141.765625 123.027344 138.816406 119.292969 138.816406 C 115.617188 138.832031 113.882812 140.953125 113.828125 145.539062 C 113.746094 150.640625 115.632812 153.148438 119.472656 153.050781 C 123.011719 152.96875 125.546875 150.058594 125.574219 146.007812 Z M 468.445312 686.039062 C 468.472656 691.136719 470.359375 693.4375 474.417969 693.300781 C 477.214844 693.203125 480.410156 689.71875 480.078125 686.5625 C 479.625 682.140625 478.234375 678.957031 474.035156 679.066406 C 469.929688 679.175781 468.429688 680.914062 468.445312 686.039062 Z M 264.796875 697.515625 C 252.871094 696.882812 240.917969 696.621094 229.035156 695.203125 C 224.90625 694.707031 220.707031 694.511719 216.574219 694.375 C 208.09375 694.085938 199.597656 693.628906 191.128906 693.175781 C 176.589844 692.402344 162.019531 691.507812 147.492188 690.226562 C 138.242188 689.414062 128.917969 688.890625 119.625 688.351562 C 109.214844 687.746094 98.804688 687.195312 88.394531 686.6875 C 85.394531 686.535156 84.59375 684.480469 84.59375 682.152344 C 84.59375 678.96875 85.269531 675.789062 85.269531 672.605469 C 85.351562 647.03125 85.117188 621.445312 85.40625 595.871094 C 85.695312 571.191406 86.796875 546.527344 87.320312 521.851562 C 87.722656 502.878906 87.199219 483.890625 87.984375 464.917969 C 89.292969 465.316406 90.074219 466.40625 90.640625 467.464844 C 93.695312 473.199219 98.28125 477.757812 102.164062 482.859375 C 142.894531 536.429688 183.636719 589.988281 224.328125 643.585938 C 237.902344 661.511719 252.015625 679.011719 264.796875 697.515625 Z M 113.8125 652.609375 C 113.800781 657.449219 115.699219 659.859375 119.433594 659.777344 C 123.066406 659.695312 125.601562 656.578125 125.558594 652.210938 C 125.519531 648.492188 122.832031 645.5 119.554688 645.542969 C 115.617188 645.613281 113.828125 647.816406 113.8125 652.609375 Z M 130.433594 382.507812 C 159.378906 420.648438 188.335938 458.773438 217.207031 496.953125 C 239.679688 526.675781 262 556.53125 284.445312 586.265625 C 313.457031 624.695312 342.535156 663.082031 371.578125 701.5 C 372.390625 702.574219 373.683594 703.414062 373.640625 705.011719 C 388.457031 706.222656 403.261719 707.589844 418.144531 707.65625 C 407.816406 694.125 397.257812 680.746094 387.191406 667.011719 C 358.152344 627.328125 327.488281 588.882812 297.964844 549.574219 C 280.011719 525.683594 261.863281 501.941406 243.726562 478.1875 C 241.964844 475.871094 239.695312 473.941406 237.65625 471.835938 C 235.4375 471.847656 233.222656 471.917969 230.992188 471.875 C 226.28125 471.765625 224.4375 470.042969 224.5625 465.234375 C 224.644531 461.84375 223.609375 458.34375 225.320312 455.066406 C 197.792969 418.539062 170.640625 381.722656 142.453125 345.703125 C 126.125 324.84375 111.265625 302.839844 94.164062 282.570312 C 93.269531 281.507812 92.304688 280.515625 91.382812 279.484375 C 91.355469 296.113281 89.800781 312.703125 90.40625 329.347656 C 104.285156 346.65625 117.035156 364.828125 130.433594 382.507812 Z M 334.550781 692.789062 C 310.480469 661.304688 286.441406 629.820312 262.386719 598.324219 C 230.632812 556.738281 198.855469 515.15625 167.128906 473.542969 C 145.800781 445.585938 124.539062 417.574219 103.265625 389.574219 C 100.566406 386.019531 98.074219 382.3125 95.378906 378.757812 C 94.042969 376.996094 92.652344 375.191406 90.433594 374.40625 C 88.890625 382.933594 89.839844 391.558594 89.550781 400.128906 C 89.320312 407.324219 90.242188 414.554688 88.808594 421.707031 C 97.898438 433.722656 106.972656 445.738281 116.074219 457.738281 C 153.042969 506.488281 190.371094 554.988281 226.886719 604.082031 C 250.0625 635.25 274.214844 665.671875 296.917969 697.183594 C 297.648438 698.191406 298.449219 699.128906 299.21875 700.105469 C 313.027344 701.347656 326.882812 702.078125 340.734375 702.640625 C 339.550781 698.785156 336.90625 695.875 334.550781 692.789062 Z M 334.550781 692.789062 " fill-opacity="1" fill-rule="nonzero"/><path fill="#9402fc" d="M 720.683594 206.03125 C 707.644531 205.421875 694.605469 204.804688 681.578125 204.195312 C 681.496094 196.894531 680.699219 189.6875 677.367188 183.058594 C 671.859375 172.078125 663.347656 164.625 650.679688 164.527344 C 638.386719 164.445312 629.972656 171.5 624.257812 182.09375 C 621.0625 188.019531 620.429688 194.550781 619.289062 200.984375 C 604.828125 199.113281 590.316406 200.492188 575.832031 200.078125 C 574.097656 172.710938 582.949219 149.480469 603.851562 131.554688 C 623.652344 114.578125 652.539062 111.960938 675.824219 125.863281 C 704.753906 143.128906 719.996094 169.128906 720.945312 203.121094 C 720.972656 204.085938 720.78125 205.066406 720.683594 206.03125 Z M 718.425781 413.109375 C 717.230469 379.863281 701.863281 355.183594 673.027344 339.023438 C 662.332031 333.027344 650.488281 330.851562 638.21875 332.230469 C 612.417969 335.148438 594.695312 349.726562 582.730469 371.910156 C 575.859375 384.65625 572.484375 398.40625 574.152344 413.066406 C 577.605469 412.847656 581.078125 412.324219 584.519531 412.449219 C 595.34375 412.835938 606.152344 413.453125 616.960938 413.992188 C 617.664062 406.894531 618.679688 399.894531 622.550781 393.652344 C 628.664062 383.789062 637.367188 377.917969 649.085938 378.402344 C 661.492188 378.910156 670 385.9375 675.328125 396.90625 C 678.179688 402.777344 678.964844 409.140625 679.101562 415.605469 C 692.140625 415.605469 705.167969 415.605469 718.207031 415.605469 C 718.289062 414.777344 718.453125 413.9375 718.425781 413.109375 Z M 549.957031 595.429688 C 549.957031 598.089844 549.972656 600.734375 549.945312 603.394531 C 549.929688 604.839844 549.984375 606.164062 551.636719 606.839844 C 554.859375 608.148438 557.972656 609.746094 561.25 610.890625 C 572.691406 614.886719 584.214844 618.632812 595.644531 622.671875 C 608.65625 627.273438 621.585938 632.121094 634.570312 636.78125 C 636.679688 637.539062 639.347656 639.039062 639.527344 634.671875 C 640.039062 622.394531 640.574219 610.132812 641.207031 597.867188 C 641.375 594.726562 639.996094 592.878906 637.199219 591.792969 C 611.492188 581.734375 585.484375 572.53125 559.445312 563.394531 C 553.539062 561.328125 550.648438 563.601562 550.550781 569.898438 C 550.425781 578.414062 550.523438 586.929688 550.523438 595.457031 C 550.332031 595.429688 550.152344 595.429688 549.957031 595.429688 Z M 729.730469 592.011719 C 729.730469 584.738281 729.757812 577.476562 729.703125 570.199219 C 729.691406 569.03125 730.296875 567.457031 727.582031 568.09375 C 718.332031 570.257812 709.847656 574.5 700.980469 577.65625 C 689.027344 581.914062 677.078125 586.144531 665.125 590.402344 C 661.214844 591.792969 658.625 594.230469 659.082031 598.777344 C 660.304688 610.890625 660.707031 623.027344 660.417969 635.179688 C 660.347656 638.363281 661.199219 639.191406 664.285156 637.976562 C 683.894531 630.222656 704.503906 625.675781 724.566406 619.363281 C 728.367188 618.164062 730.074219 616.097656 729.980469 612.117188 C 729.828125 605.40625 729.9375 598.695312 729.9375 592 C 729.867188 592.011719 729.800781 592.011719 729.730469 592.011719 Z M 344.738281 704.445312 C 348.925781 705.355469 353.167969 703.289062 357.1875 704.515625 C 362.710938 706.183594 368.121094 706.320312 373.640625 705.011719 C 373.683594 703.414062 372.390625 702.574219 371.578125 701.5 C 342.535156 663.082031 313.457031 624.695312 284.445312 586.265625 C 261.984375 556.519531 239.679688 526.671875 217.207031 496.953125 C 188.332031 458.757812 159.378906 420.648438 130.433594 382.507812 C 117.023438 364.84375 104.285156 346.667969 90.40625 329.363281 C 90.160156 337.863281 89.800781 346.367188 89.691406 354.867188 C 89.609375 361.382812 88.824219 367.957031 90.421875 374.417969 C 92.652344 375.21875 94.027344 377.023438 95.363281 378.773438 C 98.0625 382.328125 100.554688 386.035156 103.253906 389.589844 C 124.527344 417.585938 145.785156 445.601562 167.117188 473.558594 C 198.839844 515.167969 230.621094 556.753906 262.371094 598.335938 C 286.425781 629.835938 310.46875 661.320312 334.535156 692.804688 C 336.90625 695.902344 339.550781 698.796875 340.707031 702.640625 C 341.710938 704.007812 343.210938 704.117188 344.738281 704.445312 Z M 344.738281 704.445312 " fill-opacity="1" fill-rule="nonzero"/><path fill="#ee00fd" d="M 718.21875 415.605469 C 721.34375 449.746094 700.996094 484.125 670.59375 495.65625 C 653.394531 502.175781 636.347656 501.210938 619.867188 493.039062 C 590.125 478.3125 571.867188 446.234375 574.164062 413.066406 C 577.621094 412.847656 581.089844 412.324219 584.535156 412.449219 C 595.355469 412.835938 606.164062 413.453125 616.972656 413.992188 C 618.242188 421.996094 620.042969 429.714844 625.46875 436.214844 C 637.667969 450.878906 657.578125 450.601562 669.574219 437.414062 C 675.273438 431.144531 677.519531 423.554688 679.113281 415.605469 C 692.15625 415.605469 705.179688 415.605469 718.21875 415.605469 Z M 681.578125 204.183594 C 680.5625 208.523438 679.898438 212.988281 678.027344 217.066406 C 672.796875 228.488281 664.671875 236.535156 651.480469 237.003906 C 638 237.484375 629.503906 229.660156 623.664062 218.347656 C 620.855469 212.917969 620.429688 206.855469 619.289062 200.972656 C 604.828125 199.097656 590.316406 200.476562 575.832031 200.0625 C 576.273438 235.171875 591.859375 261.597656 622.136719 278.933594 C 635.410156 286.523438 650.089844 289.046875 665.402344 286.015625 C 693.230469 280.488281 724.070312 250.011719 720.683594 206.015625 C 707.644531 205.410156 694.621094 204.804688 681.578125 204.183594 Z M 639.058594 684.179688 C 639.058594 678.324219 639.101562 672.453125 639.046875 666.597656 C 639.019531 663.648438 637.613281 661.621094 634.765625 660.574219 C 608.589844 651.027344 582.8125 640.429688 556.390625 631.558594 C 551.363281 629.863281 549.808594 631.074219 549.683594 636.488281 C 549.449219 647.101562 549.324219 657.710938 548.953125 668.320312 C 548.828125 671.820312 550.234375 673.789062 553.457031 674.878906 C 558.730469 676.65625 563.976562 678.558594 569.207031 680.472656 C 590.535156 688.257812 611.867188 696.070312 633.195312 703.855469 C 637.875 705.5625 638.507812 705.109375 638.523438 700.105469 C 638.535156 694.800781 638.523438 689.484375 638.523438 684.179688 C 638.714844 684.179688 638.894531 684.179688 639.058594 684.179688 Z M 640.492188 551.324219 C 640.492188 548.390625 640.492188 545.46875 640.492188 542.53125 C 640.492188 530.230469 640.519531 530.160156 628.871094 525.929688 C 605.835938 517.566406 583.101562 508.375 559.789062 500.769531 C 554.269531 498.964844 553.261719 499.558594 553.042969 505.136719 C 552.699219 513.914062 552.546875 522.71875 552.175781 531.496094 C 551.734375 541.953125 551.914062 540.632812 560.644531 543.757812 C 585.429688 552.632812 610.1875 561.535156 634.96875 570.40625 C 639.417969 572.003906 640.175781 571.453125 640.214844 566.824219 C 640.257812 561.65625 640.230469 556.492188 640.230469 551.324219 C 640.3125 551.324219 640.394531 551.324219 640.492188 551.324219 Z M 729.675781 659.96875 C 729.675781 653.257812 729.605469 646.5625 729.71875 639.851562 C 729.757812 637.261719 729.070312 636.738281 726.5625 637.660156 C 705.894531 645.199219 685.1875 652.625 664.476562 660.078125 C 661.613281 661.113281 660.472656 663 660.527344 666.140625 C 660.691406 676.890625 660.609375 687.652344 660.609375 698.410156 C 660.609375 706.472656 660.648438 706.597656 668.320312 704.15625 C 687.433594 698.082031 706.488281 691.839844 725.601562 685.761719 C 728.738281 684.757812 730.074219 683.007812 729.980469 679.660156 C 729.8125 673.101562 729.925781 666.542969 729.925781 659.96875 C 729.839844 659.96875 729.757812 659.96875 729.675781 659.96875 Z M 729.675781 527.984375 C 729.675781 521.546875 729.578125 515.128906 729.730469 508.691406 C 729.785156 506.183594 729.195312 505.507812 726.714844 506.40625 C 706.53125 513.679688 686.332031 520.886719 666.101562 528.066406 C 663.046875 529.152344 661.683594 531.136719 661.667969 534.347656 C 661.640625 545.660156 661.585938 556.988281 661.40625 568.300781 C 661.351562 571.632812 662.535156 572.53125 665.691406 571.550781 C 685.640625 565.308594 705.59375 559.109375 725.574219 552.976562 C 728.738281 552 730.046875 550.152344 729.964844 546.847656 C 729.8125 540.5625 729.925781 534.28125 729.925781 527.996094 C 729.839844 527.984375 729.757812 527.984375 729.675781 527.984375 Z M 237.667969 471.847656 C 239.707031 473.957031 241.980469 475.886719 243.742188 478.199219 C 261.875 501.953125 280.023438 525.695312 297.980469 549.585938 C 327.515625 588.898438 358.164062 627.339844 387.203125 667.023438 C 397.257812 680.761719 407.816406 694.125 418.160156 707.671875 C 419.671875 708.554688 421.367188 708.347656 423.003906 708.46875 C 432.492188 709.253906 441.964844 710.027344 451.453125 710.796875 C 451.355469 709.105469 450.0625 708.097656 449.152344 706.898438 C 419.039062 666.996094 389.023438 627.023438 358.757812 587.21875 C 331.714844 551.65625 305.402344 515.527344 277.738281 480.433594 C 276.167969 478.449219 274.847656 476.3125 274.476562 473.734375 C 267.578125 468.71875 263.652344 461.253906 258.75 454.597656 C 247.335938 439.097656 235.34375 424.023438 224.480469 408.121094 C 218.226562 402.597656 214.414062 395.15625 209.320312 388.734375 C 179.234375 350.800781 151.582031 311.023438 121.71875 272.925781 C 111.75 260.222656 101.988281 247.367188 92.128906 234.578125 C 92.113281 237.914062 92.195312 241.234375 92.074219 244.570312 C 91.671875 256.210938 89.910156 267.828125 91.382812 279.511719 C 92.320312 280.542969 93.269531 281.535156 94.164062 282.597656 C 111.28125 302.867188 126.125 324.871094 142.453125 345.730469 C 170.652344 381.75 197.792969 418.566406 225.320312 455.09375 C 230.097656 460.191406 234.695312 465.414062 237.667969 471.847656 Z M 87.984375 464.929688 C 89.292969 465.332031 90.074219 466.417969 90.640625 467.480469 C 93.695312 473.210938 98.28125 477.773438 102.164062 482.871094 C 142.894531 536.441406 183.636719 590 224.328125 643.601562 C 237.902344 661.5 252.03125 678.996094 264.808594 697.503906 C 266.269531 698.507812 267.578125 699.898438 269.585938 699.664062 C 275.851562 698.964844 281.992188 700.3125 288.1875 700.683594 C 291.851562 700.90625 295.625 701.746094 299.203125 700.066406 C 298.433594 699.101562 297.621094 698.148438 296.90625 697.144531 C 274.199219 665.632812 250.046875 635.207031 226.875 604.042969 C 190.371094 554.949219 153.042969 506.445312 116.058594 457.699219 C 106.957031 445.695312 97.882812 433.679688 88.796875 421.667969 C 88.175781 436.105469 89.058594 450.53125 87.984375 464.929688 Z M 300.691406 449.140625 C 315.054688 446.300781 326.910156 439.082031 335.789062 427.480469 C 348.707031 410.601562 353.871094 391.464844 352.023438 370.242188 C 350.425781 351.960938 343.734375 336.222656 330.0625 323.824219 C 319.171875 313.945312 305.992188 310.015625 291.589844 311.863281 C 273.511719 314.179688 260.511719 324.941406 251.589844 340.054688 C 241.277344 357.539062 237.753906 376.652344 241.332031 396.933594 C 243.894531 411.429688 249.550781 424.089844 260.042969 434.714844 C 269.519531 444.289062 280.710938 448.988281 294.027344 449.183594 C 296.246094 449.195312 298.542969 449.566406 300.691406 449.140625 Z M 274.019531 361.921875 C 278.964844 353.875 286.507812 350.664062 295.707031 351.242188 C 304.574219 351.808594 310.273438 356.753906 313.609375 364.816406 C 316.925781 372.820312 317.613281 381.003906 315.605469 389.410156 C 312.699219 401.578125 304.421875 408.109375 292.238281 407.984375 C 280.546875 407.859375 272.738281 401.371094 269.835938 389.300781 C 269.117188 386.308594 268.652344 383.277344 268.800781 380.796875 C 268.761719 373.59375 270.605469 367.488281 274.019531 361.921875 Z M 274.019531 361.921875 " fill-opacity="1" fill-rule="nonzero"/><path fill="#141314" d="M 523 748.289062 C 523.933594 724.851562 523.21875 701.375 524.042969 677.949219 C 524.539062 663.855469 523.753906 649.746094 524.773438 635.703125 C 525.820312 621.183594 524.609375 606.644531 525.65625 592.207031 C 526.605469 579.074219 525.492188 565.941406 526.453125 552.894531 C 527.5 538.660156 526.316406 524.398438 527.347656 510.234375 C 528.273438 497.667969 527.15625 485.089844 528.148438 472.59375 C 529.140625 460.164062 528.011719 447.722656 529.015625 435.375 C 529.953125 423.925781 528.863281 412.460938 529.8125 401.09375 C 531 386.859375 529.664062 372.601562 530.667969 358.421875 C 531.878906 341.527344 530.460938 324.621094 531.507812 307.785156 C 532.566406 290.753906 531.300781 273.710938 532.390625 256.734375 C 533.269531 243.050781 532.210938 229.355469 533.171875 215.742188 C 534.164062 201.921875 533.050781 188.089844 534.070312 174.339844 C 534.949219 162.460938 533.929688 150.597656 534.839844 138.789062 C 535.886719 125.257812 534.730469 111.6875 535.75 98.226562 C 536.644531 86.210938 535.984375 74.234375 536.4375 62.25 C 539.726562 61.351562 542.894531 59.699219 546.476562 60.789062 C 546.820312 81.578125 545.746094 102.371094 545.359375 123.148438 C 545.125 135.964844 545.664062 148.847656 544.65625 161.621094 C 543.597656 175.164062 544.835938 188.722656 543.789062 202.183594 C 542.742188 215.730469 543.953125 229.273438 542.992188 242.75 C 541.890625 258.238281 543.144531 273.75 542.097656 289.183594 C 541.160156 303.003906 542.332031 316.835938 541.296875 330.589844 C 540.25 344.410156 541.492188 358.242188 540.445312 371.992188 C 539.425781 385.402344 540.636719 398.808594 539.617188 412.144531 C 538.542969 426.242188 539.808594 440.363281 538.765625 454.390625 C 537.71875 468.484375 538.96875 482.609375 537.9375 496.636719 C 536.835938 511.574219 538.144531 526.523438 537.085938 541.390625 C 536.050781 555.914062 537.289062 570.433594 536.246094 584.890625 C 535.226562 598.984375 536.449219 613.109375 535.40625 627.132812 C 534.398438 640.542969 535.609375 653.949219 534.578125 667.285156 C 533.53125 680.691406 534.742188 694.097656 533.738281 707.4375 C 532.914062 718.320312 533.367188 729.179688 533.035156 740.050781 C 532.953125 742.628906 531.578125 745.203125 533.035156 747.78125 C 529.800781 750.152344 526.371094 748.800781 523 748.289062 Z M 398.386719 475.363281 C 405.820312 476.339844 407.28125 475.140625 407.28125 467.660156 C 407.28125 411.25 407.28125 354.824219 407.28125 298.414062 C 407.28125 297.023438 407.390625 295.589844 407.128906 294.242188 C 406.730469 292.203125 405.695312 290.808594 403.261719 290.589844 C 391.777344 289.542969 380.320312 288.152344 368.769531 288.234375 C 368.769531 350.265625 368.769531 412.308594 368.769531 474.34375 C 378.640625 474.578125 388.554688 474.066406 398.386719 475.363281 Z M 346.378906 453.453125 C 345.828125 458.429688 345.539062 462.863281 350.867188 462.714844 C 354.335938 462.617188 355.519531 460.851562 355.300781 457.683594 C 355.589844 453.496094 353.636719 451.25 346.378906 453.453125 Z M 236.941406 318.296875 C 240.105469 318.148438 241.414062 316.410156 241.375 313.117188 C 241.332031 309.90625 239.816406 308.351562 236.941406 308.417969 C 233.992188 308.488281 232.421875 310.265625 232.878906 313.171875 C 232.738281 316.285156 233.59375 318.464844 236.941406 318.296875 Z M 348.71875 314.8125 C 351.886719 314.660156 353.195312 312.925781 353.152344 309.632812 C 353.113281 306.421875 351.597656 304.863281 348.71875 304.933594 C 345.773438 305 344.203125 306.777344 344.65625 309.6875 C 344.519531 312.785156 345.375 314.964844 348.71875 314.8125 Z M 348.71875 314.8125 " fill-opacity="1" fill-rule="nonzero"/></svg>