<svg xmlns="http://www.w3.org/2000/svg" xmlns:xlink="http://www.w3.org/1999/xlink" width="1080" zoomAndPan="magnify" viewBox="0 0 810 809.999993" height="1080" preserveAspectRatio="xMidYMid meet" version="1.0"><defs><clipPath id="0b70f0dad6"><path d="M 81 647 L 653.25 647 L 653.25 794.789062 L 81 794.789062 Z M 81 647 " clip-rule="nonzero"/></clipPath><clipPath id="fe7ed1785f"><path d="M 81 606 L 653.25 606 L 653.25 788 L 81 788 Z M 81 606 " clip-rule="nonzero"/></clipPath></defs><rect x="-81" width="972" fill="#ffffff" y="-80.999999" height="971.999992" fill-opacity="1"/><rect x="-81" width="972" fill="#ffffff" y="-80.999999" height="971.999992" fill-opacity="1"/><g clip-path="url(#0b70f0dad6)"><path fill="#0b4fa4" d="M 492.230469 792.859375 C 476.519531 785.945312 471.253906 783.621094 452.929688 778.230469 C 378.238281 756.257812 336.503906 736.027344 316.804688 729.695312 C 165.230469 680.96875 110.289062 664.726562 85 657.558594 C 83.277344 655.285156 81.515625 652.164062 81.027344 647.328125 C 150.808594 657.0625 343.867188 705.714844 353.074219 710.316406 C 381.191406 724.375 475.269531 750.921875 521.703125 764.414062 C 547.742188 752.980469 569.066406 740.960938 573.914062 738.882812 C 581.140625 735.785156 608.769531 726.992188 653.222656 725.175781 C 653.234375 731.765625 651.679688 733.34375 651.15625 734.21875 C 649.054688 737.726562 561.707031 773.808594 544.640625 782.34375 C 536.980469 786.171875 530.46875 788.859375 524.835938 790.707031 C 512.394531 794.785156 504.277344 794.75 497.730469 793.832031 C 495.785156 793.558594 493.972656 793.207031 492.230469 792.859375 Z M 492.230469 792.859375 " fill-opacity="1" fill-rule="evenodd"/></g><g clip-path="url(#fe7ed1785f)"><path fill="#52be0f" d="M 81.011719 647.15625 C 108.570312 639.355469 177.203125 622.203125 243.152344 606.460938 C 244.667969 606.996094 246.253906 607.542969 247.914062 608.113281 C 249.90625 610.394531 251.730469 613.261719 252.832031 618.769531 C 256.125 635.226562 258 636.757812 264.675781 640.929688 C 265.097656 641.195312 265.511719 641.746094 265.574219 641.828125 C 266.710938 643.347656 266.964844 643.265625 268.367188 644.078125 C 268.65625 644.128906 269.09375 644.203125 269.765625 644.3125 C 271.277344 644.566406 276.058594 644.289062 278.867188 643.691406 C 280.691406 643.304688 280.585938 642.996094 282.402344 642.558594 C 284.953125 641.9375 284.859375 641.691406 285.695312 641.3125 C 285.941406 641.199219 286.46875 640.769531 286.890625 640.394531 C 280.53125 635.011719 274.820312 628.457031 274.238281 627.679688 C 271.898438 624.5625 270.78125 619.988281 270.351562 615.542969 C 302.855469 625.9375 353.269531 640.628906 432.992188 660.5625 C 439.800781 662.265625 446.769531 664.054688 453.84375 665.90625 C 457.1875 676.242188 460.699219 688.742188 460.816406 693.878906 C 461.265625 713.628906 457.726562 718.398438 456.03125 729.023438 C 458.589844 732.148438 463.707031 736.214844 476.636719 742.679688 C 479.210938 743.96875 488.550781 752.402344 497.636719 751.265625 C 502.445312 750.664062 502.335938 752.714844 505.472656 754.984375 C 506.425781 755.375 509.246094 756.371094 510.839844 756.054688 C 512.039062 755.8125 511.894531 752.242188 511.878906 751.898438 C 513.027344 754.855469 512.859375 755.410156 515.953125 755.925781 C 521.511719 756.851562 521.015625 752.375 521.0625 752.21875 C 521.640625 754.683594 521.683594 754.953125 524.640625 755.796875 C 529.515625 757.191406 529.441406 754.828125 531.027344 753.242188 C 532.996094 757.179688 539.492188 756.964844 541.171875 750.378906 C 542.484375 751.175781 542.789062 751.328125 544.9375 750.898438 C 563.136719 747.257812 540.289062 738.75 532.824219 733.152344 C 511.285156 716.992188 510.246094 718.738281 508.601562 717.09375 C 498.039062 706.53125 489.894531 697.019531 485.476562 674.402344 C 549.09375 691.902344 615.597656 712.417969 653.207031 724.246094 C 653.214844 724.566406 653.21875 724.875 653.222656 725.175781 C 613.679688 743.65625 583.273438 756.691406 576.046875 759.789062 C 571.199219 761.867188 538.777344 775.765625 512.738281 787.195312 C 466.304688 773.707031 367.210938 744.613281 339.097656 730.550781 C 329.894531 725.949219 146.703125 667.792969 81.027344 647.328125 C 81.019531 647.269531 81.015625 647.214844 81.011719 647.15625 Z M 81.011719 647.15625 " fill-opacity="1" fill-rule="evenodd"/></g><path fill="#e9b9a6" d="M 239.574219 589.832031 C 240.097656 588.539062 242.128906 584.464844 254.136719 579.660156 C 275.636719 571.058594 284.089844 542.925781 305.984375 542.511719 C 316.65625 542.308594 318.730469 544.921875 324.246094 535.855469 C 324.65625 535.183594 326.65625 531.894531 329.261719 528.722656 C 339.589844 535.617188 348.871094 542.550781 356.851562 544.003906 C 364.589844 545.410156 361.667969 551.382812 369.507812 552.429688 C 373.457031 552.953125 371.796875 557.625 373.9375 557.332031 C 364.730469 565.042969 342.386719 578.9375 331.949219 579.390625 C 320.488281 579.890625 309.089844 587.226562 297.570312 588.273438 C 277.746094 590.078125 270.1875 599.550781 270.765625 603.089844 C 269.832031 607.550781 269.207031 620.972656 274.238281 627.679688 C 274.820312 628.457031 280.53125 635.011719 286.890625 640.394531 C 286.46875 640.769531 285.941406 641.199219 285.695312 641.3125 C 284.859375 641.691406 284.953125 641.9375 282.402344 642.558594 C 280.585938 642.996094 280.691406 643.304688 278.867188 643.691406 C 276.058594 644.289062 271.277344 644.566406 269.765625 644.3125 C 269.09375 644.203125 268.65625 644.128906 268.367188 644.078125 C 266.964844 643.265625 266.710938 643.347656 265.574219 641.828125 C 265.511719 641.746094 265.097656 641.195312 264.675781 640.929688 C 258 636.757812 256.125 635.226562 252.832031 618.769531 C 249.992188 604.5625 242.320312 607.914062 239.464844 593.644531 C 239.335938 592.988281 239.410156 591.367188 239.574219 589.832031 Z M 239.574219 589.832031 " fill-opacity="1" fill-rule="evenodd"/><path fill="#facbb9" d="M 450.058594 323.457031 C 441.742188 324.835938 430.921875 324.402344 427.003906 313.632812 C 422.332031 300.78125 422.035156 291.417969 414.933594 288.769531 C 411.644531 287.539062 414.464844 276.605469 412.6875 271.097656 C 412.777344 269.910156 412.714844 268.652344 412.585938 267.375 C 413.390625 265.960938 414.855469 263.675781 417.382812 260.132812 C 421.636719 254.183594 428.371094 248.449219 429.582031 247.429688 C 429.625 238.089844 431.796875 236.675781 432.734375 224.515625 C 433.664062 212.394531 432.929688 209.613281 440.109375 192.222656 C 439.496094 189.5625 438.507812 185.34375 436.832031 178.429688 C 433.445312 164.453125 433.703125 119.929688 428.191406 104.078125 C 425.5 101.722656 421.382812 98.359375 418.230469 97.234375 C 410.664062 94.53125 404.03125 90.554688 396.292969 94.988281 C 397.367188 88.792969 397.777344 85.222656 406.324219 84.773438 C 406.71875 84.753906 409.742188 84.59375 411.328125 85.21875 C 410.640625 75.949219 413.753906 74.925781 410.378906 64.800781 C 406.796875 54.046875 405.457031 54.449219 404.445312 46.125 C 403.242188 36.1875 405.722656 31.738281 407.183594 29.929688 C 407.300781 29.785156 407.617188 29.46875 407.976562 29.121094 C 408.804688 30.195312 410.308594 31.300781 413.085938 34.078125 C 421.199219 42.195312 426.585938 53.824219 429.492188 57.816406 C 436.273438 67.140625 435.765625 68.078125 440.226562 75.882812 C 441.421875 77.980469 442.90625 84.015625 443.078125 87.980469 C 446.273438 94.511719 450.046875 105.832031 450.574219 107.414062 C 452.667969 113.691406 474.222656 159.769531 470.152344 189.203125 C 478.292969 230.09375 462.601562 273.566406 452.125 290.4375 C 453.558594 295.914062 454.921875 304.035156 452.929688 313.496094 C 452.207031 316.933594 451.097656 320.414062 450.058594 323.457031 Z M 450.058594 323.457031 " fill-opacity="1" fill-rule="evenodd"/><path fill="#facbb9" d="M 359.21875 264.414062 C 358.628906 264.574219 361.089844 265.628906 360.570312 265.757812 C 364.503906 268.367188 375.316406 274.960938 376.828125 281.511719 C 381.015625 299.667969 376.808594 348.960938 363.527344 361.511719 C 354.824219 369.738281 329.25 351.34375 324.914062 343.308594 C 321.980469 337.863281 318.402344 328.851562 317.226562 318.300781 C 315.929688 306.613281 311.171875 307.515625 305.617188 288.988281 C 296.972656 260.183594 306.695312 237.878906 311.582031 177.996094 C 312.285156 175.9375 313.183594 172.386719 313.464844 167.039062 C 313.652344 163.542969 311.449219 143.617188 320.144531 119.902344 C 323.835938 109.832031 330.808594 96.691406 333.453125 77.445312 C 333.464844 77.34375 333.519531 76.4375 333.59375 75.011719 C 338.445312 59.066406 341.308594 36.03125 340.992188 25.183594 C 340.707031 15.539062 344.90625 23.980469 344.984375 24.296875 C 345.054688 23.632812 345.75 17.046875 349.125 17.046875 C 350.804688 17.046875 351.753906 23.976562 351.839844 24.613281 C 352.050781 24.3125 355.722656 19.175781 355.929688 22.523438 C 357.027344 40.039062 355.683594 40.640625 355.511719 41.425781 C 356.160156 40.199219 365.6875 22.203125 367.023438 28.4375 C 368.449219 35.101562 358.125 41.5625 358.445312 52.109375 C 358.855469 65.699219 358.878906 65.699219 355.78125 76.222656 C 354.4375 80.796875 350.9375 83.949219 348.175781 86.765625 C 347.652344 91.683594 347.195312 98.558594 347.335938 104.082031 C 348.058594 132.203125 353.101562 132.574219 345.707031 159.699219 C 344.523438 164.035156 341.253906 177.828125 340.605469 188.105469 C 352.988281 219.007812 341.464844 241.621094 350.15625 254.992188 C 351.613281 257.234375 356.414062 261.828125 359.21875 264.414062 Z M 359.21875 264.414062 " fill-opacity="1" fill-rule="evenodd"/><path fill="#facbb9" d="M 445.542969 500.042969 C 460.34375 511.394531 486.953125 516.695312 486.351562 549.195312 C 485.855469 575.980469 482.9375 575.605469 482.125 602.4375 C 479.648438 684.183594 490.621094 699.109375 508.601562 717.09375 C 510.246094 718.738281 511.285156 716.992188 532.824219 733.152344 C 540.289062 738.75 563.136719 747.257812 544.9375 750.898438 C 542.789062 751.328125 542.484375 751.175781 541.171875 750.378906 C 539.492188 756.964844 532.996094 757.179688 531.027344 753.242188 C 529.441406 754.828125 529.515625 757.191406 524.640625 755.796875 C 521.683594 754.953125 521.640625 754.683594 521.0625 752.21875 C 521.015625 752.375 521.511719 756.851562 515.953125 755.925781 C 512.859375 755.410156 513.027344 754.855469 511.878906 751.898438 C 511.894531 752.242188 512.039062 755.8125 510.839844 756.054688 C 509.246094 756.371094 506.425781 755.375 505.472656 754.984375 C 502.335938 752.714844 502.445312 750.664062 497.636719 751.265625 C 488.550781 752.402344 479.210938 743.96875 476.636719 742.679688 C 463.707031 736.214844 458.589844 732.148438 456.03125 729.023438 C 457.726562 718.398438 461.265625 713.628906 460.816406 693.878906 C 460.617188 685.1875 450.707031 655.441406 448.332031 650.695312 C 419.851562 593.722656 444.351562 585.371094 443.792969 566.476562 C 438.503906 555.933594 426.171875 557.699219 412.152344 557.410156 C 403.972656 546.652344 379.929688 531.582031 387.644531 518.660156 C 391.550781 518.769531 413.957031 501.914062 418.21875 503.496094 C 431.753906 488.753906 437.886719 500.621094 445.542969 500.042969 Z M 445.542969 500.042969 " fill-opacity="1" fill-rule="evenodd"/><path fill="#51597a" d="M 373.9375 557.332031 C 371.796875 557.625 369.109375 557.457031 365.164062 556.929688 C 357.320312 555.886719 357.808594 554.195312 350.070312 552.789062 C 342.089844 551.335938 327.601562 542.394531 329.261719 528.722656 C 329.765625 524.566406 331.761719 519.972656 335.890625 515.019531 C 338.289062 518.980469 351.554688 506.027344 354.574219 508.738281 C 359.785156 513.425781 372.074219 512.714844 378.832031 523.289062 C 382.375 528.835938 376.964844 545.683594 384.242188 550.363281 C 384.355469 550.4375 384.464844 550.503906 384.574219 550.574219 C 379.945312 554.742188 377.863281 556.800781 373.9375 557.332031 Z M 373.9375 557.332031 " fill-opacity="1" fill-rule="evenodd"/><path fill="#6c7492" d="M 436.9375 491.804688 C 444.804688 497.96875 445.25 498.378906 446.265625 499.988281 C 446.023438 500.007812 445.78125 500.023438 445.542969 500.042969 C 437.886719 500.621094 434.898438 500.539062 421.367188 515.285156 C 417.101562 513.699219 416.796875 513.796875 412.894531 513.683594 C 405.175781 526.609375 403.972656 546.652344 412.152344 557.410156 C 403.183594 557.226562 393.523438 556.203125 384.574219 550.574219 C 384.464844 550.503906 384.355469 550.4375 384.242188 550.363281 C 355.054688 531.597656 344.613281 529.40625 335.890625 515.019531 C 333.152344 510.507812 330.585938 504.796875 327.664062 497 C 318.035156 471.328125 328.105469 456.265625 332.941406 450.386719 C 336.054688 452.070312 344.304688 433.539062 356.851562 435.109375 C 370.5625 436.824219 390.53125 443.363281 420.277344 466.851562 C 423.429688 469.339844 424.566406 475.742188 427.003906 477.660156 C 431.222656 480.972656 434.449219 489.855469 436.9375 491.804688 Z M 436.9375 491.804688 " fill-opacity="1" fill-rule="evenodd"/><path fill="#0b0000" d="M 367.601562 250.050781 C 364.320312 246.210938 360.089844 239.875 358.804688 236.023438 C 354.023438 221.675781 350.742188 219.410156 355.140625 194.496094 C 355.394531 193.054688 362.429688 165.65625 401.503906 170 C 407.953125 170.714844 417.585938 169.964844 416.960938 193.578125 C 416.957031 193.832031 416.910156 193.886719 416.632812 195.21875 C 410.035156 197.804688 407.886719 194.109375 406.917969 192.441406 C 399.730469 192.875 383.324219 187.90625 378.382812 210.960938 C 376.503906 219.734375 365.730469 215.679688 365.558594 216.679688 C 374.367188 219.726562 370.707031 216.3125 369.394531 222.867188 C 368.0625 229.53125 365.195312 234.417969 368.625 236.871094 C 369.78125 237.691406 365.640625 239.78125 366.375 239.988281 C 366.933594 242.050781 367.710938 245.429688 367.601562 250.050781 Z M 367.601562 250.050781 " fill-opacity="1" fill-rule="evenodd"/><path fill="#facbb9" d="M 416.632812 195.21875 C 417.082031 196.195312 417.464844 197.207031 417.71875 198.226562 C 419.351562 204.75 424.539062 203.433594 422.96875 212.847656 C 422.011719 218.597656 420.246094 218.507812 421.734375 224.175781 C 423.722656 231.726562 423.410156 245.816406 421.632812 249.816406 C 418.101562 257.757812 416.066406 257.453125 409.664062 259.796875 C 409.660156 263.195312 409.839844 270.183594 411.367188 275.289062 C 411.515625 282.082031 406.621094 283.917969 398.246094 286.019531 C 384.609375 289.441406 370.8125 277.25 364.730469 264.535156 C 365.671875 261.820312 366.898438 257.675781 367.375 253.421875 C 367.503906 252.230469 367.578125 251.109375 367.601562 250.050781 C 367.710938 245.429688 366.933594 242.050781 366.375 239.988281 C 365.640625 239.78125 364.71875 239.3125 363.5625 238.488281 C 360.132812 236.039062 355.023438 226.617188 356.355469 219.953125 C 357.667969 213.398438 360.140625 213.605469 365.558594 216.679688 C 365.730469 215.679688 370.332031 214.515625 372.210938 205.742188 C 377.152344 182.6875 404.640625 187.761719 411.824219 187.324219 C 412.796875 188.992188 415.109375 191.929688 416.632812 195.21875 Z M 416.632812 195.21875 " fill-opacity="1" fill-rule="evenodd"/><path fill="#282828" d="M 323.210938 342.203125 C 346.03125 358.609375 378.710938 313.59375 371.601562 282.773438 C 370.089844 276.226562 361.480469 267.464844 357.550781 264.851562 C 359.128906 264.457031 361.085938 263.914062 362.976562 263.253906 C 367.589844 266.710938 381.347656 276.199219 396.800781 278.308594 C 409.128906 279.988281 412.300781 276.1875 412.6875 271.097656 C 420.703125 271.746094 434.472656 275.644531 441.3125 294.449219 C 470.148438 373.773438 440.984375 386.191406 436.9375 491.804688 C 433.015625 488.734375 427.25 484.230469 418.644531 477.4375 C 388.898438 453.949219 368.328125 457.546875 354.621094 455.832031 C 342.070312 454.265625 336.054688 452.070312 332.941406 450.386719 C 331.042969 449.359375 330.226562 448.519531 329.664062 448.128906 C 328.738281 435.003906 345.015625 416.363281 335.847656 377.402344 C 331.207031 357.679688 326.074219 350.921875 323.210938 342.203125 Z M 323.210938 342.203125 " fill-opacity="1" fill-rule="evenodd"/></svg>